<?xml version="1.0" encoding="utf-8"?>
<!-- Generator: Adobe Illustrator 19.0.0, SVG Export Plug-In . SVG Version: 6.00 Build 0)  -->
<svg version="1.1"
	 id="svg2" xmlns:dc="http://purl.org/dc/elements/1.1/" xmlns:rdf="http://www.w3.org/1999/02/22-rdf-syntax-ns#" xmlns:svg="http://www.w3.org/2000/svg" xmlns:cc="http://creativecommons.org/ns#" xmlns:sodipodi="http://sodipodi.sourceforge.net/DTD/sodipodi-0.dtd" xmlns:inkscape="http://www.inkscape.org/namespaces/inkscape" inkscape:version="0.48.3.1 r9886" sodipodi:docname="htmlcss.svg"
	 xmlns="http://www.w3.org/2000/svg" xmlns:xlink="http://www.w3.org/1999/xlink" x="0px" y="0px" viewBox="26 589 128 128"
	 style="enable-background:new 26 589 128 128;" xml:space="preserve">
<style type="text/css">
	.st0{fill:#264DE4;}
	.st1{fill:#2965F1;}
	.st2{fill:#EBEBEB;}
	.st3{fill:#FFFFFF;}
</style>
<sodipodi:namedview  id="base" fit-margin-left="0" fit-margin-top="0" showgrid="false" inkscape:cy="244.10462" inkscape:cx="-276.49014" inkscape:zoom="0.35" borderopacity="1.0" bordercolor="#666666" pagecolor="#ffffff" inkscape:window-maximized="1" inkscape:window-y="31" inkscape:window-x="0" inkscape:window-height="938" inkscape:pageshadow="2" inkscape:pageopacity="0.0" inkscape:window-width="1280" inkscape:document-units="px" fit-margin-right="0" inkscape:current-layer="layer1" fit-margin-bottom="0">
	</sodipodi:namedview>
<g id="g3013" transform="translate(95.428571,270.18109)">
	<polygon id="polygon2989" class="st0" points="-5.5,446.8 -42.5,436.5 -50.8,344 39.9,344 31.7,436.5 	"/>
	<polygon id="polygon2991" class="st1" points="24.6,430.6 31.6,351.5 -5.4,351.5 -5.4,438.9 	"/>
	<polygon id="polygon2993" class="st2" points="-31.9,385.9 -30.8,397.2 -5.4,397.2 -5.4,385.9 	"/>
	<polygon id="polygon2995" class="st2" points="-33.9,362.9 -32.9,374.2 -5.4,374.2 -5.4,362.9 -5.5,362.9 	"/>
	<polygon id="polygon2997" class="st2" points="-5.4,415.4 -5.5,415.4 -18.1,412 -18.9,402.9 -25.1,402.9 -30.3,402.9 -28.7,420.7 
		-5.5,427.2 -5.4,427.2 	"/>
	<path id="path2999" inkscape:connector-curvature="0" d="M-29.4,318.8h13.8v5.8h-8v5.8h8v5.8h-13.8V318.8z"/>
	<path id="path3001" inkscape:connector-curvature="0" d="M-12.9,318.8H0.8v5h-8v1h8v11.5h-13.8v-5.3h8v-1h-8V318.8z"/>
	<path id="path3003" inkscape:connector-curvature="0" d="M3.6,318.8h13.8v5h-8v1h8v11.5H3.6v-5.3h8v-1h-8V318.8z"/>
	<polygon id="polygon3005" class="st3" points="20.9,385.9 23,362.9 -5.5,362.9 -5.5,374.2 10.5,374.2 9.5,385.9 -5.5,385.9 
		-5.5,397.2 8.5,397.2 7.2,411.9 -5.5,415.4 -5.5,427.2 17.8,420.7 18,418.8 20.6,388.9 	"/>
</g>
</svg>
