<?xml version="1.0" encoding="utf-8"?>
<!-- Generator: Adobe Illustrator 19.0.0, SVG Export Plug-In . SVG Version: 6.00 Build 0)  -->
<svg version="1.1" id="Camada_1" xmlns="http://www.w3.org/2000/svg" xmlns:xlink="http://www.w3.org/1999/xlink" x="0px" y="0px"
	 viewBox="0 0 128 128" style="enable-background:new 0 0 128 128;" xml:space="preserve">
<style type="text/css">
	.st0{fill:#EF5034;}
</style>
<path class="st0" d="M128,62.5c0,1.2,0,2.5,0,3.7c-1.2,3-3.6,5-5.8,7.2c-16.8,16.8-33.5,33.5-50.3,50.3c-1.8,1.8-3.6,3.6-6.1,4.4
	c-1.2,0-2.5,0-3.7,0c-1.4-0.8-2.9-1.3-4-2.5c-3.6-3.7-7.3-7.3-11-11C33.6,101,20,87.4,6.5,73.9c-2.4-2.4-5-4.6-6.5-7.7
	c0-1.6,0-3.1,0-4.7C0.9,60.4,1.3,59,2.4,58c12.5-12.5,25-24.9,37.5-37.5c0.7-0.7,1.1-0.7,1.8,0c4.2,4.3,8.5,8.5,12.8,12.8
	c0.6,0.6,0.8,1.1,0.5,2c-1.2,4.5,0.5,8.8,4.4,11.1c1,0.6,1.3,1.1,1.2,2.2c0,10.7,0,21.4,0,32.1c0,1.1-0.3,1.7-1.3,2.3
	c-3.8,2.2-5.5,6.7-4.4,10.9c1.1,3.9,4.8,6.9,8.8,7c4.7,0.1,8.5-2.4,9.9-6.7c1.3-4.1-0.1-8.6-3.8-11c-0.9-0.6-1.2-1.2-1.2-2.3
	c0-10.6,0-21.2,0-31.7c0-0.4-0.2-0.9,0.2-1.3c0.5,0.1,0.7,0.5,1,0.8c3.7,3.7,7.4,7.4,11.1,11.1c0.7,0.7,0.8,1.3,0.6,2.3
	C80.2,67.3,83,72.3,88,73.9c4.9,1.6,10.2-1,12-6c1.3-3.5,0.7-6.7-1.7-9.5c-2.4-2.8-5.4-4-9.1-3.4c-0.9,0.1-1.7,0.4-2.5-0.5
	c-4.1-4.2-8.3-8.4-12.5-12.5c-0.5-0.5-0.7-0.9-0.5-1.7c1.5-7.4-4.3-13.2-11.6-11.8c-0.7,0.1-1.1,0.2-1.6-0.3c-4.5-4.5-9-9-13.5-13.5
	c-0.5-0.5-0.5-0.9,0-1.3C51.9,9,55.7,3.5,61.5,0c1.4,0,2.9,0,4.3,0c2.5,0.9,4.3,2.8,6.2,4.6c17.3,17.3,34.5,34.6,51.8,51.8
	C125.6,58.2,127.3,60,128,62.5z"/>
</svg>
