<?xml version="1.0" encoding="utf-8"?>
<!-- Generator: Adobe Illustrator 19.0.0, SVG Export Plug-In . SVG Version: 6.00 Build 0)  -->
<svg version="1.1"
	 id="svg2" xmlns:dc="http://purl.org/dc/elements/1.1/" xmlns:rdf="http://www.w3.org/1999/02/22-rdf-syntax-ns#" xmlns:svg="http://www.w3.org/2000/svg" xmlns:cc="http://creativecommons.org/ns#" xmlns:sodipodi="http://sodipodi.sourceforge.net/DTD/sodipodi-0.dtd" xmlns:inkscape="http://www.inkscape.org/namespaces/inkscape" inkscape:version="0.48.3.1 r9886" sodipodi:docname="htmlcss.svg"
	 xmlns="http://www.w3.org/2000/svg" xmlns:xlink="http://www.w3.org/1999/xlink" x="0px" y="0px" viewBox="26 589 128 128"
	 style="enable-background:new 26 589 128 128;" xml:space="preserve">
<style type="text/css">
	.st0{fill:#E44D26;}
	.st1{fill:#F16529;}
	.st2{fill:#EBEBEB;}
	.st3{fill:#FFFFFF;}
</style>
<sodipodi:namedview  id="base" fit-margin-left="0" fit-margin-top="0" showgrid="false" inkscape:cy="244.10462" inkscape:cx="-276.49014" inkscape:zoom="0.35" borderopacity="1.0" bordercolor="#666666" pagecolor="#ffffff" inkscape:window-maximized="1" inkscape:window-y="31" inkscape:window-x="0" inkscape:window-height="938" inkscape:pageshadow="2" inkscape:pageopacity="0.0" inkscape:window-width="1280" inkscape:document-units="px" fit-margin-right="0" inkscape:current-layer="layer1" fit-margin-bottom="0">
	</sodipodi:namedview>
<g id="g3054" transform="translate(524,270.18109)">
	<polygon id="polygon3028" class="st0" points="-388.7,344 -396.9,436.5 -434.1,446.8 -471.1,436.5 -479.3,344 	"/>
	<polygon id="polygon3030" class="st1" points="-434,438.9 -404,430.6 -396.9,351.5 -434,351.5 	"/>
	<polygon id="polygon3032" class="st2" points="-450.1,374.2 -434,374.2 -434,362.9 -434,362.9 -462.5,362.9 -462.2,365.9 
		-459.4,397.2 -434,397.2 -434,385.9 -449,385.9 	"/>
	<polygon id="polygon3034" class="st2" points="-447.5,402.9 -453.6,402.9 -458.9,402.9 -457.3,420.7 -434.1,427.2 -434,427.2 
		-434,415.4 -434,415.4 -446.7,412 	"/>
	<path id="path3036" inkscape:connector-curvature="0" d="M-470.9,318.8h5.8v5.7h5.3v-5.7h5.8v17.3h-5.8v-5.8h-5.3v5.8h-5.8
		L-470.9,318.8L-470.9,318.8z"/>
	<path id="path3038" inkscape:connector-curvature="0" d="M-446.5,324.5h-5.1v-5.7h15.9v5.7h-5.1v11.5h-5.8L-446.5,324.5
		L-446.5,324.5z"/>
	<path id="path3040" inkscape:connector-curvature="0" d="M-433.1,318.8h6l3.7,6.1l3.7-6.1h6v17.3h-5.7v-8.6l-4,6.1h-0.1l-4-6.1v8.6
		h-5.6V318.8L-433.1,318.8z"/>
	<path id="path3042" inkscape:connector-curvature="0" d="M-410.8,318.8h5.8v11.6h8.1v5.7h-13.9V318.8z"/>
	<polygon id="polygon3044" class="st3" points="-434,397.2 -420.1,397.2 -421.4,411.9 -434,415.4 -434,427.2 -410.8,420.7 
		-410.6,418.8 -407.9,388.9 -407.7,385.9 -410.7,385.9 -434,385.9 	"/>
	<polygon id="polygon3046" class="st3" points="-434,374.2 -434,374.2 -406.7,374.2 -406.7,374.2 -406.6,374.2 -406.4,371.7 
		-405.9,365.9 -405.6,362.9 -434,362.9 -434,369.9 	"/>
</g>
</svg>
