<?xml version="1.0" encoding="utf-8"?>
<!-- Generator: Adobe Illustrator 19.0.0, SVG Export Plug-In . SVG Version: 6.00 Build 0)  -->
<svg version="1.1" id="Camada_1" xmlns="http://www.w3.org/2000/svg" xmlns:xlink="http://www.w3.org/1999/xlink" x="0px" y="0px"
	 viewBox="-113 589 128 128" style="enable-background:new -113 589 128 128;" xml:space="preserve">
<style type="text/css">
	.st0{fill:#231F20;}
	.st1{fill:#0868AC;}
</style>
<g id="layer101">
	<path class="st0" d="M-50,717c-7.4-0.7-12.6-2.2-19.2-5.3c-17.1-8.4-29.5-23.8-33.3-41.7c-0.9-4.3-1.2-12.7-0.5-17
		c0.6-3.9,2.2-8.7,4-12.1c0.8-1.5,3-4.7,5.2-7.4c2.1-2.6,3.9-5,4.2-5.3c0.8-1.2,0.7-0.2-0.3,2c-5.1,11.2-4.5,26.1,1.6,39
		c7.8,16.3,24.6,29.7,42,33.3c7.2,1.5,16.9,1.6,23.3,0.4c9.8-2,18.6-6.9,24.1-13.6c0.6-0.8,1.2-1.3,1.3-1.2c0.3,0.3-2.1,4.7-4.1,7.7
		c-8.1,12.1-20.8,19.6-35.7,21.2C-40.1,717.2-47.5,717.3-50,717z"/>
	<path class="st0" d="M-35.7,683.1c-4.4-0.5-8.7-1.8-13.4-4.3c-5.7-3-11.9-8.4-15.4-13.3c-2.3-3.3-5.2-9-6.2-12.5
		c-2.5-8.6-1.7-17.7,2.2-24.8c1.2-2.2,6.8-10.3,7.4-10.6c0.2-0.1,0.3-0.1,0.2,0.1c-1.8,3.8-2.4,5.2-2.9,7.1
		c-3.4,12.4,0.8,25.5,11.3,36c5.3,5.3,10.8,8.7,17.6,11c5,1.7,7.3,2,13.4,2c5,0,5.9-0.1,8.5-0.8c6.7-1.8,13.2-5.9,16.7-10.5
		c0.6-0.8,1.3-1.5,1.4-1.5c0.4,0-0.9,3-2.2,5.3c-3.7,6.4-9.7,11.6-16.2,14.4C-19.6,683-27.6,683.9-35.7,683.1z"/>
	<path class="st0" d="M-22.4,653.5c-10-1.4-19.7-10-22.2-19.8c-1.2-4.7-0.6-10.7,1.4-14.7c0.9-1.8,4.3-6.6,4.5-6.4
		c0.1,0.1-0.2,0.7-0.5,1.5c-1.6,3.7-2,8.5-0.9,12.8c1.8,7.2,7.6,14.3,14.3,17.6c4.4,2.2,8.4,3.1,13.3,3.1c5.5,0,9.6-1.7,12.9-5.2
		c2-2.1,2.1-1.9,0.5,0.8c-3,5-7.1,8.3-12.3,9.7C-14.1,653.7-19.3,654-22.4,653.5z"/>
	<path class="st0" d="M-87,612.1c0.1-0.3,0.3-1.1,0.5-1.9c0.2-0.8,0.5-1.4,0.7-1.4c0.2-0.1,0.7-0.2,1.1-0.3c1-0.2,1.5-1.1,2-3.6
		c0.4-1.9,1.5-6.6,1.7-7.5c0.2-0.5,0.5-0.5,2.3-0.5c1.8,0,2.1,0.1,2.1,0.5c0,0.7-1.9,9.4-2.6,11.5c-0.3,0.9-0.9,2-1.4,2.6
		c-0.8,0.9-0.9,1-3.8,1.1C-87,612.6-87.2,612.6-87,612.1z"/>
	<path class="st0" d="M-70.7,606.8c-2.5-0.5-3.6-1.3-4.5-3.4c-0.6-1.4-0.6-3.4-0.1-5.6c0.9-3.9,2.8-6.7,5.4-8c1.3-0.7,2-0.8,4.3-0.8
		c2.3,0,3,0.1,4.3,0.8c3.3,1.7,4.1,5.2,2.4,10.3c-0.3,0.8-0.7,1.9-0.9,2.4c-0.4,0.8-0.4,0.8,0.6,0.8c1.2,0,1.3,0.3,0.6,2.5l-0.5,1.4
		l-5.2,0C-67.2,607-70,606.9-70.7,606.8z M-63.7,600.3c0.5-1.5,0.9-3.3,1-4.1c0.1-1.3,0-1.5-0.8-2.4c-0.7-0.7-1.2-0.9-2-0.9
		c-3.1,0-4.6,2-5.2,6.7c-0.2,1.6-0.1,1.7,0.6,2.5c0.7,0.7,1,0.8,3.2,0.8h2.4L-63.7,600.3z"/>
	<path class="st0" d="M-39.2,606.9c-0.4-0.1-1.3-0.3-1.9-0.4c-2.2-0.6-2.9-3.3-1.9-7.3c0.6-2.4,1.4-3.9,2.7-5
		c2.6-2.3,8.3-2.5,10.2-0.5c0.6,0.7,0.7,1,0.7,3.6c0,1.6-0.1,3.2-0.2,3.5c-0.2,0.5-0.7,0.5-4.9,0.5c-3.9,0-4.7,0.1-4.7,0.5
		c0,0.2,0.4,0.7,0.8,1c0.6,0.4,1.5,0.5,4.4,0.5h3.6l-0.2,1.2c-0.5,2.7-0.3,2.6-4.3,2.5C-36.8,607-38.8,607-39.2,606.9z M-33.4,597.4
		c0-0.7-0.7-1.1-2.1-1.1c-1.4,0-2.3,0.4-2.6,1.1c-0.1,0.4,0.2,0.5,2.2,0.5C-34.1,597.7-33.4,597.7-33.4,597.4z"/>
	<path class="st0" d="M-55.5,606.3c-1.8-1-2.1-3.1-1.1-7.6c0.3-1.4,0.8-3.4,1-4.3c0.2-0.9,0.5-1.7,0.7-1.9c0.2-0.1,1.1-0.2,2.1-0.2
		c2.1,0,2-0.3,1,4.7c-0.4,2-0.8,4.1-0.8,4.7c0,1.2,0.4,1.5,2.4,1.5h1.1l1.2-5c0.6-2.7,1.4-5.2,1.6-5.4c0.2-0.2,1.1-0.4,2.1-0.4
		c1.4,0,1.6,0.1,1.6,0.5c0,0.3-0.6,3.5-1.4,7.2l-1.4,6.7h-4.5C-53.6,606.8-54.9,606.7-55.5,606.3z"/>
	<path class="st0" d="M-29.2,606.3c0-0.5,1.6-8.4,2.4-11.8c0.2-0.7,0.5-1.4,0.7-1.7c0.4-0.4,8.1-0.6,9.7-0.2
		c1.1,0.3,1.7,1.1,2.3,3.3l0.2,0.7h-4.3h-4.4l-1,4.2c-0.5,2.3-1.1,4.6-1.2,5c-0.2,0.9-0.3,0.9-2.2,1
		C-29,606.8-29.2,606.8-29.2,606.3z"/>
	<path class="st0" d="M-17.6,606.1c0.5-1.9,0.5-3.2-0.1-4.9c-0.3-1-0.7-2.4-0.8-3.1l-0.2-1.3h2.3h2.3l0.2,1.1l0.2,1l1.6-2.2
		c0.9-1.2,2.2-3.1,3-4.2l1.5-2.1h2.4c1.3,0,2.4,0.1,2.4,0.2c0,0.1-2.2,3.1-4.8,6.7c-3.7,5-4.9,6.8-5.1,7.9l-0.4,1.5h-2.3
		C-17.8,606.8-17.8,606.8-17.6,606.1z"/>
	<path class="st0" d="M-80.5,595.7c0-0.9,0.7-3,1-3.2c0.5-0.3,3.7-0.3,3.9,0c0.1,0.1,0,1-0.2,1.9l-0.4,1.7l-2.2,0.1
		C-80.3,596.3-80.5,596.2-80.5,595.7z"/>
</g>
<g id="layer102">
	<path class="st1" d="M-50,717c-7.4-0.7-12.6-2.2-19.2-5.3c-17.1-8.4-29.5-23.8-33.3-41.7c-0.9-4.3-1.2-12.7-0.5-17
		c0.6-3.9,2.2-8.7,4-12.1c0.8-1.5,3-4.7,5.2-7.4c2.1-2.6,3.9-5,4.2-5.3c0.8-1.2,0.7-0.2-0.3,2c-5.1,11.2-4.5,26.1,1.6,39
		c7.8,16.3,24.6,29.7,42,33.3c7.2,1.5,16.9,1.6,23.3,0.4c9.8-2,18.6-6.9,24.1-13.6c0.6-0.8,1.2-1.3,1.3-1.2c0.3,0.3-2.1,4.7-4.1,7.7
		c-8.1,12.1-20.8,19.6-35.7,21.2C-40.1,717.2-47.5,717.3-50,717z"/>
	<path class="st1" d="M-35.7,683.1c-4.4-0.5-8.7-1.8-13.4-4.3c-5.7-3-11.9-8.4-15.4-13.3c-2.3-3.3-5.2-9-6.2-12.5
		c-2.5-8.6-1.7-17.7,2.2-24.8c1.2-2.2,6.8-10.3,7.4-10.6c0.2-0.1,0.3-0.1,0.2,0.1c-1.8,3.8-2.4,5.2-2.9,7.1
		c-3.4,12.4,0.8,25.5,11.3,36c5.3,5.3,10.8,8.7,17.6,11c5,1.7,7.3,2,13.4,2c5,0,5.9-0.1,8.5-0.8c6.7-1.8,13.2-5.9,16.7-10.5
		c0.6-0.8,1.3-1.5,1.4-1.5c0.4,0-0.9,3-2.2,5.3c-3.7,6.4-9.7,11.6-16.2,14.4C-19.6,683-27.6,683.9-35.7,683.1z"/>
	<path class="st1" d="M-22.4,653.5c-10-1.4-19.7-10-22.2-19.8c-1.2-4.7-0.6-10.7,1.4-14.7c0.9-1.8,4.3-6.6,4.5-6.4
		c0.1,0.1-0.2,0.7-0.5,1.5c-1.6,3.7-2,8.5-0.9,12.8c1.8,7.2,7.6,14.3,14.3,17.6c4.4,2.2,8.4,3.1,13.3,3.1c5.5,0,9.6-1.7,12.9-5.2
		c2-2.1,2.1-1.9,0.5,0.8c-3,5-7.1,8.3-12.3,9.7C-14.1,653.7-19.3,654-22.4,653.5z"/>
</g>
</svg>
