<?xml version="1.0" encoding="utf-8"?>
<!-- Generator: Adobe Illustrator 19.0.0, SVG Export Plug-In . SVG Version: 6.00 Build 0)  -->
<svg version="1.1" id="Camada_1" xmlns="http://www.w3.org/2000/svg" xmlns:xlink="http://www.w3.org/1999/xlink" x="0px" y="0px"
	 viewBox="0 0 128 128" style="enable-background:new 0 0 128 128;" xml:space="preserve">
<style type="text/css">
	.st0{fill:#3E863D;}
	.st1{fill:#74AB63;}
	.st2{fill:#72A962;}
	.st3{fill:#6BA35E;}
	.st4{fill:#70A861;}
	.st5{fill:#6BBE47;}
	.st6{fill:#68A15C;}
	.st7{fill:#77B062;}
	.st8{fill:#6DA55F;}
	.st9{fill:#78B261;}
	.st10{fill:#639A58;}
	.st11{fill:#498C45;}
	.st12{fill:#669F5A;}
	.st13{fill:#74B759;}
	.st14{fill:#70BA51;}
	.st15{fill:#669D5A;}
	.st16{fill:#77B45F;}
	.st17{fill:#3F863D;}
	.st18{fill:#6EBB4E;}
	.st19{fill:#72B855;}
	.st20{fill:#629C58;}
	.st21{fill:#40873E;}
	.st22{fill:#5E9955;}
	.st23{fill:#699F5C;}
	.st24{fill:#6CBD4A;}
	.st25{fill:#54934D;}
	.st26{fill:#4F914A;}
	.st27{fill:#5A9752;}
	.st28{fill:#57954F;}
	.st29{fill:#54934E;}
	.st30{fill:#59AA46;}
	.st31{fill:#559350;}
	.st32{fill:#6CA25F;}
	.st33{fill:#579651;}
	.st34{fill:#76B55C;}
	.st35{fill:#579C4B;}
	.st36{fill:#569A4C;}
	.st37{fill:#58A249;}
	.st38{fill:#579F4A;}
	.st39{fill:#59A747;}
	.st40{fill:#619857;}
	.st41{fill:#56974D;}
	.st42{fill:#438941;}
	.st43{fill:#40873F;}
	.st44{fill:#4C8E48;}
	.st45{fill:#468A43;}
	.st46{fill:#5E9655;}
</style>
<g>
	<path class="st0" d="M65.8,127.8c-1.9,0.5-3.3-0.4-4.9-1.3c-15.9-9.2-31.8-18.3-47.6-27.5c-1.3-0.8-2.9-1.4-3.4-3.2
		c0.8-3.6,3.5-6.4,4.9-9.7c1.3-1.7,2.3-3.7,3.4-5.5c1.3-1.9,2.1-4.1,3.5-6c1-1.4,1.7-3,2.7-4.4c1.3-1.9,2.1-4.2,3.5-6
		c0.6-0.8,1.2-1.7,2.4-1.6c1.8,0.9,2.2,2.8,3.3,4.2c1.6,2.5,2.7,5.3,4.3,7.7c1,1.5,1.7,3.1,2.6,4.6c0.8,1.7,1.6,3.5,2.7,5.1
		c1.3,2,2.2,4.1,3.4,6.2c0.9,2.2,2.4,4,3.5,6.1c0.9,1.7,1.6,3.5,2.7,5.1c1.3,2,2.3,4.2,3.4,6.2c1.2,2.7,3.1,5.1,4.3,7.8
		c1.2,2.9,3.1,5.5,4.5,8.3C65.4,125.2,66.5,126.3,65.8,127.8z"/>
	<path class="st1" d="M64.2,124.5c-1.5-2.9-3.7-5.4-4.5-8.6c-1.1-3.9-1.2-8-1.2-12c0-31,0-62,0-92.9c0-3,0.1-6.1,1.4-8.9
		c2.1-1.6,4.1-3.2,6.9-1.8c0.3,0.5,0.5,1,0.6,1.6c-1.1,6.3-1,12.7-1,19.1c0,32.3,0,64.6-0.1,97C66.3,120,67.5,123.1,64.2,124.5z"/>
	<path class="st2" d="M64.2,124.5c1.4-1.5,0.8-3.3,0.8-5c0-36.3,0-72.5,0-108.8c0-3.4,0.5-6.6,1.8-9.7c3.4,1.3,3.9,4.2,4.2,7.3
		c-0.4,4.9-0.1,9.8-0.1,14.7c0,30.4,0,60.7,0,91.1c0,3.8,0,7.5,0.3,11.3c-1.5,1.3-3.1,2.5-5.3,2.5C65.3,126.7,64.7,125.6,64.2,124.5
		z"/>
	<path class="st3" d="M83.2,118.4c-1.4,1.3-3,2.2-4.8,2.8c-2.1,0.2-2.7-1.3-3.1-2.9c-0.4-1.4-0.3-2.9-0.3-4.3c0-28.9,0-57.9,0-86.8
		c0-2.4-0.2-5,1.3-7.1c1.2-1.5,2.2-0.7,3,0.4c1.5,2,3.1,4.1,3.1,6.8c-0.5,2.7-0.4,5.5-0.4,8.2c0,24.7,0,49.4,0,74.1
		C82,112.5,82.2,115.5,83.2,118.4z"/>
	<path class="st4" d="M71.1,125.4c-2.2-0.3-1.7-2-1.7-3.4c0-37,0-74.1,0-111.1c0-1.3,0.3-2.6,0.9-3.7c0.5-0.3,0.9-0.2,1.3,0.1
		c1.7,2.2,3,4.5,3,7.5c-0.5,3-0.3,6.1-0.3,9.1c0,32.1-0.1,64.1,0.1,96.2c0,1.3,0,2.6-0.5,3.8C72.9,124.3,72,124.8,71.1,125.4z"/>
	<path class="st5" d="M12,29.7c5.2-3.6,10.8-6.7,16.5-9.6c2.8-0.9,2.7,1.4,3,2.9c0.4,2.7,0.2,5.5,0.2,8.2c0,7.9,0,15.8,0,23.7
		c0,1.9,0.1,3.8-0.8,5.5c-1.8,1.8-2.5-0.2-3.6-1c-3-3.9-4-9-7.2-12.8C16.7,41.3,13.4,35.9,12,29.7z"/>
	<path class="st6" d="M83.2,118.4c-2.4-0.2-2.5-2-2.5-3.8c0-27.9,0-55.8,0-83.7c0-1.5,0.5-3.1,0.8-4.6c3.8,1.8,4.6,5.3,4.8,9
		c0.1,25.7,0,51.5,0.1,77.2c0,1.5,0,2.9-0.4,4.3C85.2,117.6,84.3,118.1,83.2,118.4z"/>
	<path class="st7" d="M59.8,2c1.1,2.7-0.1,5.4-0.1,8.1c0.1,31.3,0.1,62.5,0.1,93.8c0,4,0.9,8-0.1,12.1c-1.7-2.5-3.5-4.9-4.3-7.8
		c-0.6-3.4-0.4-6.9-0.4-10.4c0-28.6,0-57.2,0-85.8c0-3.4,0.1-6.7,3.1-9C58.6,2.6,59.2,2.3,59.8,2z"/>
	<path class="st8" d="M73.8,123.8c-0.9-1.6-1-3.3-1-5c0-33.2,0-66.4,0-99.6c0-2.1,0.4-4,0.9-5.9c2.9,1.1,4.2,3,3.5,6.1
		c-0.6,2.1-0.9,4.2-0.9,6.4c0,29.9,0,59.9,0.1,89.8c0,2.1-0.7,4.5,2,5.7C77,122.4,75.5,123.3,73.8,123.8z"/>
	<path class="st9" d="M58.1,2.9c-1.7,2.8-1.8,5.9-1.8,9.1c0.1,29.5,0,59,0,88.6c0,2.5,0.1,5.1-1,7.4c-1.1-2.1-2.3-4.1-3.4-6.2
		c-1.2-2.8-0.4-5.7-0.4-8.6c0-26.9,0-53.8,0-80.7c0-1.9-0.4-3.7-0.6-5.6C53.2,5.4,55.5,4,58.1,2.9z"/>
	<path class="st10" d="M71.1,7.1c-0.3,0-0.6,0-0.9,0c-1.2-2-1.7-4.4-3.5-6.1c0-0.3,0-0.6,0-0.9c5.6,2.2,10.6,5.6,15.6,8.8
		c8.8,13.3,19,25.7,28.1,38.8c0.4,1.8-0.7,3.2-1.3,4.7c-0.4,0.7-0.8,1.5-1.5,2c-0.4,0.2-0.8,0.2-1.2,0.1c-3.5-3.3-5.6-7.6-8.5-11.3
		c-7.4-9.6-14.3-19.6-21.8-29C74.3,11.9,73.3,9.1,71.1,7.1z"/>
	<path class="st11" d="M108.5,103.7c-1.2,1.3-2.8,2-4.4,2.6c-2.9,0.9-2.7-1.5-2.9-3c-0.3-2.4-0.1-4.9-0.1-7.4c0-9.4,0-18.8,0-28.2
		c0-2-0.1-4.1,0.8-6c0.4-0.7,0.8-1.3,1.5-1.6c4.9,2.5,10,4.8,14.9,7.4c1.2,0.6,2.3,1.3,2.7,2.6c0.1,1.5,0.1,3,0,4.5
		c-1.3,1.9-2.8,0.6-4.1,0.1c-2.5-1-4.8-2.5-7.3-3.7c-1,0.7-0.2,1.9-0.7,2.7c-0.1,8.5,0,16.9,0,25.4C109,100.6,109,102.1,108.5,103.7
		z"/>
	<path class="st12" d="M86,116.7c-1.4-1.1-1-2.6-1-4c0-24.9,0-49.7,0-74.6c0-1.4-0.5-2.9,0.9-4.1c3.6,1.1,3.8,4.2,4.2,7.2
		c-0.6,7.8-0.2,15.6-0.2,23.4c-0.1,14.6,0,29.2,0,43.9c0,1.9,0,3.8,0.7,5.6C89.1,115.3,87.7,116.3,86,116.7z"/>
	<path class="st13" d="M45.9,90.6c-1.7-1.7-2.3-4.1-3.5-6.1c1-22.5,0.2-45.1,0.5-67.6c0-1.6-0.6-3.1-0.7-4.7
		c1.3-1.2,2.7-2.1,4.4-2.6c0.6-0.3,1.1-0.2,1.5,0.3c1.1,1.7,0.9,3.6,0.9,5.5c0,22.6,0,45.1,0,67.7C48.9,86,49.3,89.1,45.9,90.6z"/>
	<path class="st14" d="M39.8,79.4c-0.9-1.5-1.7-2.9-2.6-4.4c-0.9-2.2-1.4-4.4-1.4-6.8c-0.1-16.6,0-33.3-0.1-49.9
		c0-0.9,0.2-1.7,0.4-2.6c0.7-0.9,1.6-1.5,2.8-1.6c2.1-0.9,2.9,0.5,3.5,2c0.5,1.2,0.4,2.6,0.4,3.9c0,17.6,0,35.3,0,52.9
		C42.8,75.5,42.9,78.2,39.8,79.4z"/>
	<path class="st15" d="M110.2,48c-5.8-5.5-9.5-12.6-14.4-18.7c-4-4.9-7.5-10.1-11.1-15.3c-1.1-1.5-2-3.2-2.2-5.1
		c3.7,1.6,7.2,3.7,10.4,6c3.7,2.6,6.6,5.9,8.8,9.9c2.5,4.6,6,8.4,9.4,12.4c1.5,1.7,2.5,3.5,2.5,5.8C113.2,45.2,112.3,47,110.2,48z"
		/>
	<path class="st16" d="M47.6,9.7c-0.4,0-0.7-0.1-1.1-0.1c1.2-1.3,2.7-2.1,4.4-2.6c2.1,0.3,1.8,1.9,1.8,3.3c0,28.7,0,57.3,0,86
		c0,1.8-0.5,3.7-0.8,5.5c-1.4-1.4-2.2-3.2-2.7-5.1c-0.5-3.1-0.4-6.3-0.4-9.5c0-24.2,0-48.5,0-72.7C48.9,12.8,49.2,11,47.6,9.7z"/>
	<path class="st17" d="M108.5,103.7c-0.3-0.6-0.9-1.2-0.9-1.9c-0.1-9.2-0.1-18.4,0-27.6c0-0.6,0.5-1.3,0.8-1.9
		c3.2,1.3,3.7,4.6,5.4,7c0.9,1.3,1.5,2.8,2.4,4.1c2.2,3.7,5.4,7,4.5,11.8C118,99.9,112.8,101.2,108.5,103.7z"/>
	<path class="st18" d="M36.1,15.7c1.7,1.3,1.1,3.2,1.1,4.8c0,18.1,0,36.3,0,54.4c-2-2.3-2.9-5.2-4.3-7.8c-0.7-1-0.6-2.2-0.6-3.3
		c0.1-14.1,0-28.2,0-42.3c0-1.3,0.3-2.6,0.5-3.8C33.7,16.6,34.8,16,36.1,15.7z"/>
	<path class="st19" d="M39.8,79.4c1.5-1.8,1.8-3.7,1.8-6c-0.1-18.1,0-36.2-0.1-54.3c0-2.1,0.7-4.6-2.6-5c0.9-1,2-1.6,3.2-1.9
		c2.3,0.3,2,2.1,2,3.6c0,21.5,0,43,0,64.5c0,1.8-0.5,3-1.8,4.1C41,83,40.2,81.3,39.8,79.4z"/>
	<path class="st20" d="M90.4,114.2c-2-0.3-2-1.7-2-3.2c0-22.5,0-45,0-67.5c0-1.1,0.5-2.2,0.8-3.3c0.5-0.3,1-0.2,1.4,0.2
		c0.9,1,1.3,2.3,1.5,3.6c0.4,22.2,0.1,44.5,0.2,66.7c0,0.9-0.1,1.7-0.4,2.6C91.5,113.5,91,113.9,90.4,114.2z"/>
	<path class="st21" d="M110.2,48c0.6-1.9,2.4-3.1,2.6-5.2c0.4-2.4,1.6-4.6,2.7-6.7c1.7-1.4,1.3-5.1,4.9-4.5c0.2,0.2,0.3,0.5,0.3,0.8
		c0.9,8.1,0.2,16.2,0.4,24.3c0,0.8-0.6,1.6-1.3,1.4c-4.2-1-8.4-2.3-11.3-5.8C109,50.9,109.6,49.4,110.2,48z"/>
	<path class="st22" d="M92,113.2c-1.6-1.4-0.9-3.3-0.9-4.9c0-21.9,0-43.7,0-65.6c3.1,0.9,2.9,3.9,3.7,6.2c0.2,20.9,0.2,41.8,0,62.6
		C94.1,112.5,93.2,113,92,113.2z"/>
	<path class="st23" d="M116.3,36.7c-1.1,2-1.8,4.4-3.5,6.1c-1.3-4.3-4.7-7.1-7.3-10.5C101.1,26.6,98,20,92.8,14.9
		c5.8,2.8,11.3,6,16.5,9.7c3.4,1.8,4.6,5.4,7,8C117.6,34,115.7,35.3,116.3,36.7z"/>
	<path class="st24" d="M32.9,17.6c1.4,1.3,0.8,3,0.8,4.5c0,12.6,0,25.2,0.1,37.7c0,2.5-0.8,4.8-0.9,7.3c-0.9-1.4-1.8-2.9-2.6-4.3
		c-0.7-0.4-1.3-0.8-0.8-1.8c1.3-1.1,0.8-2.7,0.8-4c0-10.9,0-21.8,0-32.7c0-1.5,0.9-3.7-1.8-4.1C29.7,18.9,31.2,18.1,32.9,17.6z"/>
	<path class="st25" d="M100.9,108.1c-0.8,0.9-1.7,1.4-2.8,1.6c-2.3-0.3-2-2.2-2-3.7c-0.1-16.2-0.1-32.3,0-48.5
		c0-1.3,0.1-2.6,1.2-3.6c2.9-0.5,3.1,1.7,3.5,3.6C101.4,74.4,101.1,91.3,100.9,108.1z"/>
	<path class="st26" d="M100.9,108.1c-1.7-1.3-1.1-3.2-1.1-4.8c-0.1-13-0.1-26.1,0.1-39.1c0-2.2-1.2-4.4-0.1-6.6
		c1.9,0.5,2.8,1.9,3.5,3.5c-0.6,1.2-0.9,2.4-0.9,3.7c0,12.7,0,25.4,0,38.1c0,1.4-0.4,3,1.7,3.4C103.3,107.2,102.1,107.8,100.9,108.1
		z"/>
	<path class="st27" d="M94.8,111.6c-1.8-1.3-1.1-3.2-1.1-4.8c0-19.6,0-39.2,0-58.8c2.9,0.1,3.5,1.9,3.1,4.3
		c-0.2,1.1-0.5,2.2-0.5,3.4c0.1,18.3-0.2,36.6,0.1,54.9C95.9,111,95.4,111.3,94.8,111.6z"/>
	<path class="st28" d="M96.5,110.7c-1.3-0.9-1-2.3-1-3.6c0-17.5,0-35,0-52.5c0-1.1-0.2-2.3,0.9-3.2c1.9,0,2.1,1.1,1.7,2.6
		c-1.2,1-0.9,2.4-0.9,3.6c0,16.1,0,32.3,0,48.4c0,1.3-0.4,2.6,0.9,3.6C97.5,110,97,110.4,96.5,110.7z"/>
	<path class="st29" d="M12,29.7c2.9,5.5,5.8,11,8.7,16.5c0.2,1.7-1.1,1.6-1.9,1.3c-3.4-1.5-7.2-2.3-9.8-5.3c0.2-3-0.4-6.1,0.4-9.1
		C9.4,31.4,10.4,30.3,12,29.7z"/>
	<path class="st30" d="M15.5,86.3c-1.1,3.7-3,6.8-5.5,9.6c-0.9-0.8-1.2-2-1.2-3.1C8.8,77.6,8.9,62.4,9,47.1c0.5,0.1,0.8,0.4,1,0.8
		c0.3,0.8,0.4,1.7,0.5,2.6c0.1,1.8,0.1,3.7,0.1,5.5c0.1,1.9,0.1,3.9,0,5.8c0.1,1.7,0.1,3.5,0,5.2c0,2.7,0.1,5.4,0,8.1
		c-0.3,3.8-0.4,7.5,4.1,9.2C15.3,84.7,15.7,85.5,15.5,86.3z"/>
	<path class="st31" d="M120.6,57.6c0-8.4,0-16.8,0.1-25.2c1.1,1,0.9,2.4,0.9,3.7c0,18.8,0,37.6-0.1,56.4c0,1,0.2,2-0.7,2.8
		c-0.4-4.5-3.5-7.7-5.3-11.6c-0.6-0.9-0.5-1.7,0.7-1.7c1.2,0,1.9,1.2,3.2,1.2c0.7-2.7-0.7-5.7,1.3-8.2c0-1.7,0-3.5,0-5.2
		c-1-1.5-1.3-3.2-1.2-5c0-1.2-0.1-2.5,0-3.7C119.5,59.7,119.8,58.5,120.6,57.6z"/>
	<path class="st32" d="M116.3,36.7c-0.6-5-4.5-8.1-6.9-12c4,1.8,8.1,3.3,11,6.9C117.9,32.4,118,35.2,116.3,36.7z"/>
	<path class="st33" d="M9.2,47.1c0,0-0.2,0-0.2,0c-0.3-4.7-0.9-9.4,0.3-14c0.1,3.2,0.1,6.4,0.2,9.7C10.5,44.3,10.7,45.8,9.2,47.1z"
		/>
	<path class="st34" d="M47.6,9.7c2.2-0.2,2.6,1,2.6,2.9c0,26.9,0,53.9-0.1,80.8c0,1.1-0.6,2.2-0.9,3.3c-1.5-1.9-3-3.7-3.4-6.1
		c1.8-2.3,1.8-5,1.8-7.7C47.6,58.5,47.6,34.1,47.6,9.7z"/>
	<path class="st35" d="M9.5,61.9c0-2,0-4.1,0-6.1c1.9-1.5,3.6-0.2,5.1,0.7c4,2.3,8,4.5,12.5,5.8c1.1,0.3,2.4,0.6,1.4,2.3
		c-1.2,2-1.7,4.4-3.5,6.1c-2.8-2.9-6.4-4.2-9.9-5.6C13.1,64.1,11,63.5,9.5,61.9z"/>
	<path class="st36" d="M28.5,64.5c-6.5-2.5-12.3-6.6-19-8.7c0-2,0-4,0-6c6.3,0.5,11,4.5,16.1,7.7c0.7,0.4,0.9,1.6,2.1,1
		c0.6,0.9,1.2,1.7,1.8,2.6c0.3,0.6,0.6,1.2,0.8,1.8C29.6,63.4,29.1,63.9,28.5,64.5z"/>
	<path class="st37" d="M9.5,75.8c0-2.9,0-5.8,0-8.7c5.1,0.2,8.8,3.5,12.9,5.9c0.6,0.3,0.6,1.3,0,1.9c-1.2,2-1.7,4.4-3.5,6.1
		C15.6,79.5,12.1,78.5,9.5,75.8z"/>
	<path class="st38" d="M22.4,74.9c-1.2-3.4-5-2.9-7.2-4.8c-1.6-1.4-3.8-2-5.7-3c0-1.8,0-3.5,0-5.3c5,1.2,9.6,3.5,14.2,5.8
		c1.3,0.6,1.4,1.7,1.4,2.9C24.2,72,23.8,73.8,22.4,74.9z"/>
	<path class="st39" d="M9.5,75.8c3.3,1.5,7.1,2.1,9.5,5.2c-1.1,1.8-1.4,4.1-3.4,5.3c-0.3-0.3-0.6-0.8-0.9-0.9
		C8.8,84.3,8.9,80.2,9.5,75.8z"/>
	<path class="st40" d="M90.2,40.2c-0.3,0-0.6,0-0.9,0c-1.2-2-1.7-4.4-3.5-6.1c-1.5-2.6-2.3-5.6-4.3-7.8c-1.4-2.3-2.9-4.6-4.3-7
		c-0.6-2.3-2-4.2-3.5-6.1c-0.8-2-2.3-3.8-2.6-6.1c1.6-0.8,1.9,0.7,2.5,1.5c8.3,11,16.6,22,24.7,33.1c3,4,5.6,8.2,8.5,12.3
		c0.9,1.1,0.3,2-0.3,2.9c-0.4,0.5-1,0.8-1.6,0.9c-2.5-0.3-3.5-2.4-4.7-4.1C97,49.1,93.8,44.5,90.2,40.2z"/>
	<path class="st41" d="M27.6,58.5c-0.1,0.8-0.3,1.6-1.3,0.8c-5.1-4.2-11.1-6.6-16.9-9.5c-0.1-0.9-0.2-1.8-0.3-2.6
		c0.1-1.5,0.2-2.9,0.3-4.4c2.9,0,5,2,7.5,2.9c1.2,0.4,2.2,2.2,3.7,0.6C24.2,49.6,24.9,54.6,27.6,58.5z"/>
	<path class="st42" d="M105.9,56.7c0.3-0.9,0.6-1.7,0.9-2.6c0.3,0,0.6,0,0.8,0c4.9,1.3,9.1,3.9,13,7c0,1.2,0,2.3,0,3.5
		C114.9,65,110.4,62,106,59C105.3,58.5,105.2,57.5,105.9,56.7z"/>
	<path class="st43" d="M120.6,61c-4.7-1.7-8.9-4.2-13-7c0-0.7,0.2-1.3,0.9-1.7c4.1,1.7,8.1,3.5,12.2,5.2
		C120.6,58.7,120.6,59.9,120.6,61z"/>
	<path class="st44" d="M120.6,74.9c0,2.3,0.1,4.6,0,6.9c0,0.9,0.5,2.3-0.5,2.7c-1,0.5-2.2,0-3-1c-0.6-0.9-1.3-1.9-1.7,0.1
		c-2.3-3.8-4.6-7.5-7-11.3c0.3-1-1.2-2.1-0.3-2.7c0.5-0.4,2,0.1,2.7,0.6C114,72.1,117.1,74,120.6,74.9z"/>
	<path class="st45" d="M105.9,56.7c0,1.7,1.2,2.5,2.6,3c4.1,1.6,7.9,3.9,12.2,4.8c0,1.7,0,3.5,0,5.2c-4.6-2.1-9-4.9-13.9-6.6
		c-1.4-0.5-2.6-1.3-2.6-3c-0.9-1.3-0.2-2,0.9-2.6C105.3,57.3,105.6,57,105.9,56.7z"/>
	<path class="st46" d="M105,57.5c-0.3,0.9-0.6,1.7-0.9,2.6c-0.3,0.3-0.6,0.6-0.9,0.9c-1.5-0.8-2.6-2-3.5-3.5
		c-0.1-1.4-0.6-2.6-1.7-3.5c-0.6-0.9-1.2-1.7-1.7-2.6c-0.1-1.8-1.2-2.7-2.6-3.5c-0.9-1.7-1.7-3.5-2.6-5.2c-0.3-0.9-0.6-1.7-0.9-2.6
		c3.2,0.1,3.4,3.3,5,5C98.9,48.9,100.5,54.4,105,57.5z"/>
</g>
</svg>
