<?xml version="1.0" encoding="utf-8"?>
<!-- Generator: Adobe Illustrator 19.0.0, SVG Export Plug-In . SVG Version: 6.00 Build 0)  -->
<svg version="1.1" id="Camada_1" xmlns="http://www.w3.org/2000/svg" xmlns:xlink="http://www.w3.org/1999/xlink" x="0px" y="0px"
	 viewBox="0 0 128 128" style="enable-background:new 0 0 128 128;" xml:space="preserve">
<style type="text/css">
	.st0{fill:#CA3837;}
	.st1{fill:#FEFEFE;}
</style>
<path class="st0" d="M0,82.2C0,68,0,53.9,0,39.8c0-0.2,0.1-0.3,0.3-0.3c42.5,0,84.9,0,127.4,0c0.2,0,0.3,0.1,0.3,0.3
	c0,14.1,0,28.3,0,42.4c-0.1,0-0.1,0-0.2,0c-21.2,0-42.3,0-63.5,0c-0.3,0-0.3,0.1-0.3,0.3c0,2.3,0,4.5,0,6.8c-9.5,0-18.9,0-28.4,0
	c0-0.1,0-0.3,0-0.4c0-2.1,0-4.2,0-6.3c0-0.3-0.1-0.4-0.4-0.4c-11.6,0-23.2,0-34.8,0C0.2,82.2,0.1,82.2,0,82.2z M99.5,46.6
	c-7,0-14,0-21,0c-0.3,0-0.4,0-0.4,0.3c0,9.3,0,18.5,0,27.8c0,0.3,0.1,0.3,0.4,0.3c4.5,0,9,0,13.5,0c0.4,0,0.4,0.1,0.4-0.4
	c0-6.8,0-13.7,0-20.5c0-0.5-0.1-0.4,0.4-0.4c2.1,0,4.1,0,6.2,0c0.5,0,0.4,0,0.4,0.4c0,6.8,0,13.7,0,20.5c0,0.3,0.1,0.4,0.4,0.4
	c2.1,0,4.3,0,6.4,0c0.3,0,0.4-0.1,0.4-0.4c0-6.9,0-13.7,0-20.6c0-0.3,0.1-0.4,0.4-0.4c2.1,0,4.2,0,6.2,0c0.5,0,0.4-0.1,0.4,0.4
	c0,6.8,0,13.7,0,20.5c0,0.3,0.1,0.4,0.4,0.4c2.1,0,4.3,0,6.4,0c0.3,0,0.3-0.1,0.3-0.4c0-9.3,0-18.5,0-27.8c0-0.3-0.1-0.4-0.4-0.4
	C113.5,46.6,106.5,46.6,99.5,46.6z M42.6,64.4c0,5.8,0,11.6,0,17.4c0,0.3,0,0.4,0.3,0.4c4.5,0,9.1,0,13.6,0c0.2,0,0.3-0.1,0.3-0.3
	c0-2.2,0-4.3,0-6.5c0-0.3,0.1-0.3,0.4-0.3c4.5,0,9,0,13.5,0c0.3,0,0.4-0.1,0.4-0.4c0-9.2,0-18.5,0-27.7c0-0.3-0.1-0.4-0.4-0.4
	c-9.2,0-18.4,0-27.6,0c-0.5,0-0.4-0.1-0.4,0.4C42.6,52.8,42.6,58.6,42.6,64.4z M7.1,60.8c0,4.6,0,9.3,0,13.9c0,0.3,0.1,0.3,0.4,0.3
	c4.5,0,9,0,13.5,0c0.5,0,0.4,0.1,0.4-0.4c0-6.8,0-13.7,0-20.5c0-0.4,0-0.4,0.4-0.4c2.1,0,4.2,0,6.3,0c0.3,0,0.4,0.1,0.4,0.4
	c0,6.8,0,13.7,0,20.5c0,0.3,0.1,0.4,0.4,0.4c2.1,0,4.2,0,6.4,0c0.3,0,0.4-0.1,0.4-0.4c0-9.2,0-18.5,0-27.7c0-0.3-0.1-0.4-0.4-0.4
	c-9.2,0-18.5,0-27.7,0c-0.3,0-0.4,0.1-0.4,0.4C7.1,51.6,7.1,56.2,7.1,60.8z"/>
<path class="st1" d="M99.5,46.6c7,0,14,0,21,0c0.3,0,0.4,0.1,0.4,0.4c0,9.3,0,18.5,0,27.8c0,0.3,0,0.4-0.3,0.4c-2.1,0-4.3,0-6.4,0
	c-0.3,0-0.4-0.1-0.4-0.4c0-6.8,0-13.7,0-20.5c0-0.5,0.1-0.4-0.4-0.4c-2.1,0-4.2,0-6.2,0c-0.3,0-0.4,0.1-0.4,0.4c0,6.9,0,13.7,0,20.6
	c0,0.3-0.1,0.4-0.4,0.4c-2.1,0-4.3,0-6.4,0c-0.3,0-0.4-0.1-0.4-0.4c0-6.8,0-13.7,0-20.5c0-0.5,0.1-0.4-0.4-0.4c-2.1,0-4.1,0-6.2,0
	c-0.5,0-0.4-0.1-0.4,0.4c0,6.8,0,13.7,0,20.5c0,0.5,0,0.4-0.4,0.4c-4.5,0-9,0-13.5,0c-0.3,0-0.4-0.1-0.4-0.3c0-9.3,0-18.5,0-27.8
	c0-0.3,0.1-0.3,0.4-0.3C85.6,46.6,92.5,46.6,99.5,46.6z"/>
<path class="st1" d="M42.6,64.4c0-5.8,0-11.6,0-17.4c0-0.5,0-0.4,0.4-0.4c9.2,0,18.4,0,27.6,0c0.3,0,0.4,0.1,0.4,0.4
	c0,9.2,0,18.5,0,27.7c0,0.3-0.1,0.4-0.4,0.4c-4.5,0-9,0-13.5,0c-0.3,0-0.4,0.1-0.4,0.3c0,2.2,0,4.3,0,6.5c0,0.3-0.1,0.3-0.3,0.3
	c-4.5,0-9.1,0-13.6,0c-0.3,0-0.3-0.1-0.3-0.4C42.6,76,42.6,70.2,42.6,64.4z M64,60.8c0-2.3,0-4.5,0-6.8c0-0.2,0-0.3-0.3-0.3
	c-2.2,0-4.3,0-6.5,0c-0.2,0-0.3,0.1-0.3,0.3c0,4.5,0,9.1,0,13.6c0,0.2,0.1,0.3,0.3,0.3c2.2,0,4.3,0,6.5,0c0.2,0,0.3-0.1,0.3-0.3
	C64,65.3,64,63.1,64,60.8z"/>
<path class="st1" d="M7.1,60.8c0-4.6,0-9.3,0-13.9c0-0.3,0.1-0.4,0.4-0.4c9.2,0,18.5,0,27.7,0c0.3,0,0.4,0.1,0.4,0.4
	c0,9.2,0,18.5,0,27.7c0,0.3-0.1,0.4-0.4,0.4c-2.1,0-4.2,0-6.4,0c-0.3,0-0.4-0.1-0.4-0.4c0-6.8,0-13.7,0-20.5c0-0.3-0.1-0.4-0.4-0.4
	c-2.1,0-4.2,0-6.3,0c-0.4,0-0.4,0-0.4,0.4c0,6.8,0,13.7,0,20.5c0,0.5,0,0.4-0.4,0.4c-4.5,0-9,0-13.5,0c-0.3,0-0.4-0.1-0.4-0.3
	C7.1,70.1,7.1,65.5,7.1,60.8z"/>
<path class="st0" d="M64,60.8c0,2.3,0,4.5,0,6.8c0,0.3-0.1,0.3-0.3,0.3c-2.2,0-4.3,0-6.5,0c-0.2,0-0.3,0-0.3-0.3c0-4.5,0-9.1,0-13.6
	c0-0.2,0.1-0.3,0.3-0.3c2.2,0,4.3,0,6.5,0c0.3,0,0.3,0.1,0.3,0.3C64,56.3,64,58.6,64,60.8z"/>
</svg>
