<?xml version="1.0" encoding="utf-8"?>
<!-- Generator: Adobe Illustrator 19.0.0, SVG Export Plug-In . SVG Version: 6.00 Build 0)  -->
<svg version="1.1" id="Camada_1" xmlns="http://www.w3.org/2000/svg" xmlns:xlink="http://www.w3.org/1999/xlink" x="0px" y="0px"
	 viewBox="-169 533 128 128" style="enable-background:new -169 533 128 128;" xml:space="preserve">
<style type="text/css">
	.st0{fill:#35495E;}
	.st1{fill:#41B883;}
</style>
<g id="layer101">
	<path class="st0" d="M-137,597.5c-17.5-30.2-31.9-55-32-55.3c-0.2-0.4,2.8-0.5,24.6-0.5h24.8l7.1,12.3c3.9,6.8,7.3,12.3,7.4,12.3
		c0.1,0,3.5-5.5,7.4-12.3l7.1-12.3h24.8c21.5,0,24.8,0.1,24.6,0.5c-0.4,1.1-63.8,110.1-64,110.1C-105.1,652.3-119.6,627.6-137,597.5
		z"/>
</g>
<g id="layer102">
	<path class="st1" d="M-137,597.5c-17.5-30.2-31.9-55-32-55.3c-0.2-0.4,1.3-0.5,12.7-0.4l12.9,0.1l19,32.9
		c10.5,18.1,19.2,32.9,19.4,32.9s8.9-14.8,19.4-32.9l19-32.9l12.9-0.1c11.2-0.1,12.9,0,12.7,0.4c-0.4,1.2-63.8,110.1-64,110.1
		C-105.1,652.3-119.6,627.6-137,597.5z"/>
</g>
</svg>
