<?xml version="1.0" encoding="utf-8"?>
<svg version="1.1" xmlns="http://www.w3.org/2000/svg" xmlns:xlink="http://www.w3.org/1999/xlink" x="0px" y="0px" viewBox="0 0 338 304.8" enable-background="new 0 0 338 304.8" xml:space="preserve">
	<g>
	  <polygon fill="#999999" points="130.3,69 113.3,62.8 113.3,115 130.3,121.1"/>
	  <polygon fill="#B7B7B7" points="130.3,52 97.3,40 97.3,58.1 130.3,70.1"/>
	  <polygon fill="#D6D6D6" points="130.3,19 81.3,1.2 81.3,35.2 130.3,53"/>
	  <polygon fill="#F4F4F4" points="257.3,190.3 247.2,227.7 185.3,222.3 120.8,222.3 129.3,190.8 129.3,18.6 161.3,30.3 161.3,190.3"/>
  </g>
  <g>
	  <polygon fill="#F4F4F4" points="337,272.1 327.3,272.1 321,281.1 314.8,272.1 305,272.1 316.1,288.1 305,304.1 314.8,304.1 321,295.1 327.3,304.1 337,304.1 325.9,288.1 "/>
	  <rect fill="#F4F4F4" x="293" y="272.1" width="8" height="32"/>
	  <polygon fill="#F4F4F4" points="289,295.9 289,304.1 265,304.1 265,272.1 273.3,272.1 273.3,295.9 "/>
	  <circle fill="#F4F4F4" cx="177" cy="288.1" r="16"/>
	  <polygon fill="#F4F4F4" points="157,272.1 157,304.1 141,289.9 141,304.1 133,304.1 133,272.1 149,286.3 149,272.1 "/>
	  <polygon fill="#F4F4F4" points="121,304.1 129,304.1 113,272.1 97,304.1 105,304.1 109,296.1 117,296.1 "/>
	  <rect fill="#F4F4F4" x="85" y="272.1" width="8" height="32"/>
	  <path fill="#F4F4F4" d="M77,295c-1.2,0.6-2.6,1-4,1c-4.4,0-8-3.6-8-8s3.6-8,8-8c1.4,0,2.8,0.4,4,1l4-6.9c-2.3-1.3-5.1-2.1-7.9-2.1 c-8.9,0-16.1,7.1-16.1,16l0,0c0,8.9,7.2,16,16.1,16c2.9,0,5.6-0.8,7.9-2.1L77,295z"/><path fill="#F4F4F4" d="M53,272.1v20c0,6.6-5.3,12-12,12H41c-6.6,0-12-5.4-12-12v-20h8.3v20c0,2.2,1.8,4,4,4h0.3c2.2,0,4-1.8,4-4 v-20H53z"/>
	  <polygon fill="#F4F4F4" points="25,295.9 25,304.1 1,304.1 1,272.1 9.3,272.1 9.3,295.9 "/>
	  <polygon fill="#F4F4F4" points="245.3,280.3 245.3,284 256.9,284 256.9,292.2 245.3,292.2 245.3,295.9 261,295.9 261,304.1 237,304.1 237,272.1 261,272.1 261,280.3 "/>
	  <polygon fill="#F4F4F4" points="233,272.1 233,280.3 216.5,280.3 216.5,284 228.1,284 228.1,292.1 216.5,292.1 216.5,304.1 209,304.1 209,272.1 "/>
  </g>
</svg>
