<?xml version="1.0" encoding="utf-8"?>
<svg version="1.1" xmlns="http://www.w3.org/2000/svg" xmlns:xlink="http://www.w3.org/1999/xlink" x="0px" y="0px" viewBox="0 0 673.8 65.4" style="enable-background:new 0 0 673.8 65.4;" xml:space="preserve">
	<polygon fill="#F4F4F4" points="673,1 653.5,1 641,19 628.5,1 609,1 631.3,33 609,65 628.5,65 641,47 653.5,65 673,65 650.7,33 "/>
	<rect fill="#F4F4F4" x="585" y="1" width="16" height="64"/>
	<polygon fill="#F4F4F4" points="577,48.6 577,65 529,65 529,1 545.5,1 545.5,48.6 "/>
	<circle fill="#F4F4F4" cx="353" cy="33" r="32"/>
	<polygon fill="#F4F4F4" points="313,1 313,65 281,36.6 281,65 265,65 265,1 297,29.4 297,1 "/>
	<polygon fill="#F4F4F4" points="241,65 257,65 225,1 193,65 209,65 217,49 233,49 "/>
	<rect fill="#F4F4F4" x="169" y="1" width="16" height="64"/>
	<path fill="#F4F4F4" d="M153,46.9c-2.3,1.3-5.1,2.1-8,2.1c-8.9,0-16-7.2-16-16s7.2-16,16-16c2.9,0,5.6,0.8,8,2.1l8-13.9 C156.3,2.6,150.9,1,145.1,1C127.4,1,113,15.3,113,33l0,0c0,17.7,14.4,32,32.1,32c5.8,0,11.2-1.6,15.9-4.2L153,46.9z"/>
	<path fill="#F4F4F4" d="M105,1v40c0,13.3-10.7,24-23.9,24h-0.2C67.7,65,57,54.3,57,41V1h16.5v40c0,4.4,3.6,8,8,8H82c4.4,0,8-3.6,8-8V1 H105z"/>
	<polygon fill="#F4F4F4" points="49,48.6 49,65 1,65 1,1 17.5,1 17.5,48.6 "/>
	<polygon fill="#F4F4F4" points="489.5,17.4 489.5,24.8 512.8,24.8 512.8,41.2 489.5,41.2 489.5,48.6 521,48.6 521,65 473,65 473,1 521,1 521,17.4 "/>
	<polygon fill="#F4F4F4" points="465,1 465,17.4 432,17.4 432,24.9 455.2,24.9 455.2,41.1 432,41.1 432,65 417,65 417,1 "/>
</svg>
