<?xml version="1.0" encoding="utf-8"?>
<!-- Generator: Adobe Illustrator 19.0.0, SVG Export Plug-In . SVG Version: 6.00 Build 0)  -->
<svg version="1.2" baseProfile="tiny" id="Camada_1"
	 xmlns="http://www.w3.org/2000/svg" xmlns:xlink="http://www.w3.org/1999/xlink" x="0px" y="0px" viewBox="0 0 500 500"
	 xml:space="preserve">
 <style type="text/css">
 	.st0{fill:#B39DDB;}
 	.st1{fill:#7C4DFF;}
 	.st2{fill:#FFFFFF;}
 </style>
<g id="XMLID_158_">
	<polygon id="XMLID_157_" class="st0" points="181.2,128.4 181.2,203.3 202,212 202,137.1 	"/>
	<polygon id="XMLID_156_" class="st1" points="164.5,95.7 164.5,125.5 202,141.1 202,111.2 	"/>
	<polygon id="XMLID_275_" class="st2" points="353.8,296.3 343.5,350.3 343.4,350.6 256.6,342.5 191.1,342.5 201.9,296.3
		202,296.1 202,115.2 141.8,90.3 141.8,40.8 247.9,84.7 247.9,296.3 	"/>
</g>
<g id="XMLID_1_">
	<path id="XMLID_2_" class="st2" d="M70.4,454.2L48,454.3v-40.7h9.6v31h12.7V454.2z"/>
	<path id="XMLID_4_" class="st2" d="M103.3,437.3c0,4.5-0.7,7.9-2.1,10.3c-3,4.8-7.2,7.3-12.7,7.3c-5.8,0-10.7-3.2-13.2-8.4
		c-1-2.1-1.5-5.3-1.5-9.6v-23.3h9.6V437c0,3,0.1,4.8,0.5,5.4c0.9,1.9,2.4,2.9,4.6,2.9c1.9,0,3.4-0.9,4.4-2.5
		c0.5-0.9,0.8-2.7,0.8-5.4v-23.8h9.6V437.3z"/>
	<path id="XMLID_6_" class="st2" d="M147,444.7c-4.9,7-11.2,10.5-18.7,10.5c-6.1,0-11.2-2-15.3-6.1s-6.1-9.2-6.1-15.3
		c0-6,2.1-11.1,6.2-15.2c4.2-4.1,9.3-6.2,15.3-6.2c7.3,0,13.3,3.3,18.1,9.9l-7.8,5.7c-2.9-4-6.3-6-10.4-6c-3.4,0-6.2,1.2-8.4,3.4
		s-3.4,5-3.4,8.4c0,3.4,1.2,6.2,3.4,8.4s5,3.4,8.4,3.4c4.3,0,7.9-2.1,10.8-6.3L147,444.7z"/>
	<path id="XMLID_8_" class="st2" d="M161.7,454.3h-9.6v-40.7h9.6V454.3z"/>
	<path id="XMLID_10_" class="st2" d="M208,454.3h-10.7l-4.2-8.6h-11.7l-4,8.6h-10.7l20.2-40.9L208,454.3z"/>
	<path id="XMLID_12_" class="st2" d="M241.2,454.4L221,435.2v19h-9.6v-41l20.2,19.2v-18.9h9.6V454.4z"/>
	<path id="XMLID_14_" class="st2" d="M280.5,449c-4.1,4.1-9.2,6.2-15.2,6.2c-6,0-11.2-2.1-15.3-6.2s-6.1-9.1-6.1-15.3
		c0-6,2.1-11,6.2-15.1c4.2-4.2,9.2-6.3,15.2-6.3s11.1,2.1,15.2,6.2s6.2,9.2,6.2,15.2C286.7,439.8,284.6,444.9,280.5,449z"/>
	<path id="XMLID_16_" class="st2" d="M338.8,423.1H325v6.1h10.2v9.6H325v15.3h-9.6v-40.8h23.3V423.1z"/>
	<path id="XMLID_18_" class="st2" d="M365.4,454.3h-23.3v-40.8h23.3v9.6h-13.8v6.1h10.2v9.6h-10.2v5.8h13.8V454.3z"/>
	<path id="XMLID_20_" class="st2" d="M391,454.2l-22.3,0.1v-40.7h9.6v31H391V454.2z"/>
	<path id="XMLID_22_" class="st2" d="M405.7,454.3h-9.6v-40.7h9.6V454.3z"/>
	<path id="XMLID_24_" class="st2" d="M447.6,454.3h-11.3l-7.3-11.5c-1.7,2.5-4,6.3-7.3,11.5h-11.3l12.9-20.7l-12.2-20h11.3
		l6.6,10.9l6.6-10.9H447l-12.2,19.9L447.6,454.3z"/>
</g>
</svg>
