<?xml version="1.0" encoding="utf-8"?>
<svg version="1.1" id="Layer_1" xmlns="http://www.w3.org/2000/svg" xmlns:xlink="http://www.w3.org/1999/xlink" x="0px" y="0px" viewBox="0 0 907 510" enable-background="new 0 0 907 510" xml:space="preserve">
	<rect fill="#141414" width="907" height="510"/>
	<polygon fill="#F4F4F4" points="678,234.7 665,234.7 656.7,246.7 648.3,234.7 635.3,234.7 650.2,256 635.3,277.3 648.3,277.3 656.7,265.3 665,277.3 678,277.3 663.1,256 "/>
	<rect x="619.3" y="234.7" fill="#F4F4F4" width="10.7" height="42.7"/>
	<polygon fill="#F4F4F4" points="614,266.4 614,277.3 582,277.3 582,234.7 593,234.7 593,266.4"/>
	<circle fill="#F4F4F4" cx="464.7" cy="256" r="21.3"/>
	<polygon fill="#F4F4F4" points="438,234.7 438,277.3 416.7,258.4 416.7,277.3 406,277.3 406,234.7 427.3,253.6 427.3,234.7"/>
	<polygon fill="#F4F4F4" points="390,277.3 400.7,277.3 379.3,234.7 358,277.3 368.7,277.3 374,266.7 384.7,266.7"/>
	<rect x="342" y="234.7" fill="#F4F4F4" width="10.7" height="42.7"/>
	<path fill="#F4F4F4" d="M331.3,265.3c-1.5,0.9-3.4,1.4-5.3,1.4c-5.9,0-10.7-4.8-10.7-10.7s4.8-10.7,10.7-10.7c1.9,0,3.7,0.5,5.3,1.4 l5.3-9.3c-3.1-1.7-6.7-2.8-10.6-2.8c-11.8,0-21.4,9.5-21.4,21.3l0,0c0,11.8,9.6,21.3,21.4,21.3c3.9,0,7.5-1.1,10.6-2.8L331.3,265.3z"/>
	<path fill="#F4F4F4" d="M299.3,234.7v26.7c0,8.9-7.1,16-15.9,16h-0.1c-8.8,0-15.9-7.1-15.9-16v-26.7h11v26.7c0,2.9,2.4,5.3,5.3,5.3 h0.3c2.9,0,5.3-2.4,5.3-5.3v-26.7H299.3z"/>
	<polygon fill="#F4F4F4" points="262,266.4 262,277.3 230,277.3 230,234.7 241,234.7 241,266.4"/>
	<polygon fill="#F4F4F4" points="555.7,245.6 555.7,250.5 571.2,250.5 571.2,261.5 555.7,261.5 555.7,266.4 576.7,266.4 576.7,277.3 544.7,277.3 544.7,234.7 576.7,234.7 576.7,245.6"/>
	<polygon fill="#F4F4F4" points="539.3,234.7 539.3,245.6 517.3,245.6 517.3,250.6 532.8,250.6 532.8,261.4 517.3,261.4 517.3,277.3 507.3,277.3 507.3,234.7"/>
</svg>
