<?xml version="1.0" encoding="utf-8"?>
<!-- Generator: Adobe Illustrator 19.0.0, SVG Export Plug-In . SVG Version: 6.00 Build 0)  -->
<svg version="1.2" baseProfile="tiny" id="Camada_1"
	 xmlns="http://www.w3.org/2000/svg" xmlns:xlink="http://www.w3.org/1999/xlink" x="0px" y="0px" viewBox="0 0 500 65.6"
	 xml:space="preserve">
<g id="XMLID_1_">
	<path id="XMLID_2_" fill="#FFFFFF" d="M33,57.6L5.8,57.7V8.2h11.7V46H33V57.6z"/>
	<path id="XMLID_4_" fill="#FFFFFF" d="M73,37.1c0,5.5-0.9,9.6-2.5,12.5c-3.6,5.9-8.8,8.8-15.4,8.8c-7,0-13.1-3.9-16.1-10.3
		c-1.2-2.5-1.8-6.4-1.8-11.7V8.2h11.7v28.5c0,3.6,0.2,5.8,0.6,6.6c1.1,2.4,2.9,3.5,5.6,3.5c2.4,0,4.1-1.1,5.3-3.1
		c0.6-1.1,1-3.3,1-6.6V8.2H73V37.1z"/>
	<path id="XMLID_6_" fill="#FFFFFF" d="M126.2,46.1c-6,8.5-13.6,12.8-22.8,12.8c-7.4,0-13.7-2.5-18.7-7.4c-5-5-7.4-11.2-7.4-18.7
		c0-7.3,2.5-13.5,7.5-18.5c5.2-5,11.3-7.5,18.6-7.5c8.8,0,16.2,4,22.1,12.1l-9.5,6.9c-3.5-4.8-7.7-7.3-12.6-7.3
		c-4.1,0-7.5,1.4-10.3,4.1S89,28.7,89,32.8c0,4.1,1.4,7.5,4.1,10.3s6.1,4.1,10.3,4.1c5.3,0,9.6-2.5,13.1-7.7L126.2,46.1z"/>
	<path id="XMLID_8_" fill="#FFFFFF" d="M144.1,57.7h-11.7V8.2h11.7V57.7z"/>
	<path id="XMLID_10_" fill="#FFFFFF" d="M200.4,57.7h-13l-5.1-10.4h-14.2l-4.8,10.4h-13L174.9,8L200.4,57.7z"/>
	<path id="XMLID_12_" fill="#FFFFFF" d="M240.9,57.9l-24.6-23.3v23.1h-11.7V7.9l24.6,23.4v-23h11.7V57.9z"/>
	<path id="XMLID_14_" fill="#FFFFFF" d="M288.7,51.3c-5,5-11.2,7.5-18.5,7.5c-7.4,0-13.6-2.5-18.6-7.5c-5-5-7.4-11.1-7.4-18.6
		c0-7.3,2.5-13.4,7.5-18.4c5.1-5.1,11.2-7.6,18.5-7.6s13.5,2.5,18.5,7.5c5,5,7.5,11.2,7.5,18.5C296.2,40.1,293.7,46.3,288.7,51.3z"
		/>
	<path id="XMLID_16_" fill="#FFFFFF" d="M359.6,19.9h-16.7v7.4h12.4v11.7h-12.4v18.7h-11.7V8.1h28.4V19.9z"/>
	<path id="XMLID_18_" fill="#FFFFFF" d="M392,57.7h-28.4V8.1H392v11.7h-16.7v7.4h12.4v11.7h-12.4v7H392V57.7z"/>
	<path id="XMLID_20_" fill="#FFFFFF" d="M423.1,57.6l-27.2,0.1V8.2h11.7V46h15.4V57.6z"/>
	<path id="XMLID_22_" fill="#FFFFFF" d="M441,57.7h-11.7V8.2H441V57.7z"/>
	<path id="XMLID_24_" fill="#FFFFFF" d="M492,57.7h-13.8l-8.8-14c-2,3.1-4.9,7.7-8.8,14h-13.8l15.7-25.1L447.6,8.2h13.8l8.1,13.2
		l8.1-13.2h13.8l-14.9,24.3L492,57.7z"/>
</g>
</svg>
