<?xml version="1.0" encoding="utf-8"?>
<!-- Generator: Adobe Illustrator 19.0.0, SVG Export Plug-In . SVG Version: 6.00 Build 0)  -->
<svg version="1.1"
	 id="Layer_1" xmlns:dc="http://purl.org/dc/elements/1.1/" xmlns:rdf="http://www.w3.org/1999/02/22-rdf-syntax-ns#" xmlns:svg="http://www.w3.org/2000/svg" xmlns:cc="http://creativecommons.org/ns#"
	 xmlns="http://www.w3.org/2000/svg" xmlns:xlink="http://www.w3.org/1999/xlink" x="0px" y="0px" viewBox="-22 425 128 128"
	 style="enable-background:new -22 425 128 128;" xml:space="preserve">
<style type="text/css">
	.st0{fill:#B3B3B3;}
	.st1{fill:#A6120D;}
	.st2{fill:#DD1B16;}
	.st3{fill:#F2F2F2;}
</style>
<polygon id="polygon50" class="st0" points="-8.7,525 41.9,552.8 92.7,524.7 102.2,446 41.8,425.3 -18.2,446.4 "/>
<polygon id="polygon52" class="st1" points="41.7,546.3 87.4,521 96.3,450.6 41.7,432 "/>
<polygon id="polygon54" class="st2" points="41.7,546.3 41.7,432 -11.5,450.9 -3.4,521.3 "/>
<path id="path56" class="st3" d="M56.7,492.9l-15,7H25.8l-7.4,18.6l-13.9,0.3l37.2-82.7L56.7,492.9z M55.2,489.3l-13.5-26.7
	l-11.1,26.2h11L55.2,489.3z"/>
<polygon id="polygon58" class="st0" points="54.3,488.9 41.7,488.9 41.7,499.9 59.1,499.9 67.3,518.8 80.5,519 41.7,436.1 
	41.8,462.6 "/>
</svg>
