<?xml version="1.0" encoding="utf-8"?>
<!-- Generator: Adobe Illustrator 19.0.0, SVG Export Plug-In . SVG Version: 6.00 Build 0)  -->
<svg version="1.1" id="Camada_1" xmlns="http://www.w3.org/2000/svg" xmlns:xlink="http://www.w3.org/1999/xlink" x="0px" y="0px"
	 viewBox="0 0 128 128" style="enable-background:new 0 0 128 128;" xml:space="preserve">
<style type="text/css">
	.st0{fill:#28334C;}
	.st1{fill:#2B364F;}
</style>
<g>
	<path class="st0" d="M0,83.8c0-2,0-4.1,0-6.1c0.2-0.1,0.3-0.3,0.3-0.5c1-7.3,5.1-12.7,10.7-17c1-0.8,1.2-1.3,0.8-2.3
		c-1.4-3.4-2.1-6.9-3-10.4c-0.6-2.1-0.8-4.3-1.3-6.7c3.6,3.1,7.5,5.1,11.7,6.4c7.6,2.3,15.4,3.5,23.2,4.4C53.9,53,65.3,53.5,76.7,53
		c5.8-0.3,11.6-0.7,17.4-1.4c5.9-0.8,11.8-1.6,17.6-3.1c6-1.5,11.7-3.3,16.3-7.6c0,0.2,0,0.4,0,0.6c-0.1,0.1-0.3,0.2-0.3,0.3
		c-0.8,4.9-2.1,9.6-3.5,14.4c-1.7,5.4-3.7,10.7-6.3,15.8c-2.9,5.8-6.9,10.9-10.7,16.1c-3.5,4.7-6.3,9.7-7.3,15.5
		c-0.1,0.3-0.1,0.6-0.3,0.9c-3.9,4.9-9.1,7.6-15,9.1c-8,2-16.2,2.3-24.4,1.6c-6.8-0.6-13.3-2.2-19.1-5.9c-2.4-1.6-4.6-3.6-5.3-6.9
		c-0.5-2.4-1.5-4.9-2.7-7.1c-2.8-5.2-6.7-9.7-10-14.6c-3-4.4-5.7-8.8-7.7-13.7c-0.4-0.9-0.7-2.3-1.5-2.4c-0.7-0.1-1.4,1.2-2,2
		c-2.8,4.3-3.4,8.9-2.5,14c1.3,7.2,5.9,11.6,11.9,14.9c2.3,1.3,4.8,1.9,7.6,2.2c-4.6,2.5-12,3.2-16.4,1.2c-5-2.2-8.6-5.5-10.9-10.4
		C0.9,87,0.7,85.3,0,83.8z"/>
	<path class="st1" d="M121.7,23.7c2.5,0.9,4.7,2.1,5.8,4.7c0.7,1.9,0,3.7-2,5.3c-2.6,2-5.5,3.4-8.6,4.3c-7.6,2.3-15.3,3.8-23.2,4.8
		c-13.7,1.6-27.5,1.7-41.2,1c-10.2-0.5-20.3-1.8-30.1-4.5c-4.5-1.2-9.1-2.6-12.9-5.5c-3.1-2.4-3.9-5.3,0-8.2
		c1.9-1.4,4.1-2.1,6.1-3.2c0.4,0.4,0.1,0.6,0,0.8c-2.2,2.5-1.8,5.2,1.1,7.1c3.4,2.2,7.2,3.4,11,4.4c15.1,3.7,30.4,4.3,45.9,4.1
		c10-0.2,19.9-0.9,29.7-2.9c4.9-1,9.9-2,14.5-4.3c1.7-0.8,3.4-1.7,4.4-3.5C122.7,26.5,122.5,25.1,121.7,23.7z"/>
	<path class="st1" d="M42.9,23.6c5.6,0.1,9.8-1.6,13.8-4.4c4.8-3.3,10.1-5.5,16-6.2c4.8-0.5,9.5-0.8,14.3,0.1
		c3.8,0.7,7.4,1.9,9.9,5.2c2,2.7,1.6,6.4-1.2,8.4c-2.8,2-6,2.5-9.3,3c-3.6,0.5-7.1,0.4-10.6-0.5c-1.7-0.4-3.3-1.1-4.5-2.5
		c-0.9-1.2-0.8-2.2,0.2-3.1c0.9-0.9,2-1.3,3.3-1.4c0.5,0,0.8,0.1,1,0.5c0.9,2,2.7,2.7,4.6,2.9c2.8,0.3,5.6,0.2,8.3-1
		c1.4-0.6,2.5-1.2,2.7-2.8c0.1-1-1.5-2.6-2.9-3c-3.4-1-6.9-0.9-10.5-0.5C71.7,19,66.2,22,60.7,25c-6.2,3.3-12.7,4.2-19.5,2.8
		c-2.1-0.4-4.2-1.4-5.9-3c-3.4-3.1-2.9-7.4,1.4-8.9c4-1.5,8.2-2,12.4-0.4c0.9,0.3,1.8,0.8,1.7,2c-0.1,1.1-1.1,1.4-2.5,1
		c-3.2-1-6.4-1-9.6,0.1c-0.9,0.3-1.5,0.8-1.6,1.8c-0.1,0.9,0.2,1.6,1,2.2C39.7,23.8,41.7,23.5,42.9,23.6z"/>
</g>
</svg>
