<?xml version="1.0" encoding="utf-8"?>
<!-- Generator: Adobe Illustrator 19.0.0, SVG Export Plug-In . SVG Version: 6.00 Build 0)  -->
<svg version="1.1" id="Camada_1" xmlns="http://www.w3.org/2000/svg" xmlns:xlink="http://www.w3.org/1999/xlink" x="0px" y="0px"
	 viewBox="0 0 128 128" style="enable-background:new 0 0 128 128;" xml:space="preserve">
<style type="text/css">
	.st0{fill:#181616;}
</style>
<path class="st0" d="M76.1,93.6c1.4-0.3,2.2-0.6,3.1-0.8c24-5.3,32.8-25.4,20.3-46.8c-1.2-2-0.1-3.3,0-5c0.2-4.6,1.5-10.4-2.2-13
	c-3.3-2.3-8.1,0.9-11.8,3.1c-3.4,2-6.5,2.7-10.5,1.8c-7.2-1.6-14.5-1.5-21.7,0c-3.5,0.7-6.4,0.6-9.5-1.4c-3.9-2.4-9-5.9-12.6-3.3
	c-3.8,2.7-2.7,8.9-1.9,13.6c0.3,2.1,0.3,3.4-0.9,5.3c-11.7,18.4-2,41.2,19.2,45.3c1.4,0.3,2.8,0.6,4.5,1.1c-0.8,1.3-1.9,2.3-2.1,3.5
	c-0.8,4.3-3.2,6.4-7.5,6.6c-4.8,0.2-8.8-1.1-11.6-5.2c-2.4-3.6-5.1-6.9-9.6-7.9c-1.4-0.3-3.1-0.8-3.8,0.9c-0.6,1.5,1,2.1,2,2.7
	c2.9,2,5.1,4.5,6.4,7.7c3.3,8.3,9.5,11.7,18.1,10.8c3.9-0.4,4.7,0.8,4.6,4.5c-0.2,10.5-0.7,11-10.3,6.8C13,112.6-2.9,85.2,0.5,59.2
	c3.9-30.3,24.8-52,54.4-56.7c31.8-5.1,62.7,15,71,46.1c8.3,31.1-8.3,64.3-37.9,75.9c-7,2.7-7.8,2.2-7.8-5.1c0-3.9-0.1-7.8,0-11.7
	C80.3,102.7,79.4,98,76.1,93.6z"/>
</svg>
