<?xml version="1.0" encoding="utf-8"?>
<!-- Generator: Adobe Illustrator 19.0.0, SVG Export Plug-In . SVG Version: 6.00 Build 0)  -->
<svg version="1.1" id="Camada_1" xmlns="http://www.w3.org/2000/svg" xmlns:xlink="http://www.w3.org/1999/xlink" x="0px" y="0px"
	 viewBox="0 0 128 128" style="enable-background:new 0 0 128 128;" xml:space="preserve">
<style type="text/css">
	.st0{fill:#FE7C00;}
	.st1{fill:#E68C38;}
	.st2{fill:#261300;}
</style>
<g id="XMLID_2_">
	<path id="XMLID_60_" class="st0" d="M0.1,64.1c0-21.1,0-42.2,0-63.4c0-0.5,0.1-0.6,0.6-0.6c42.3,0,84.6,0,126.8,0
		c0.5,0,0.6,0.1,0.6,0.6c0,42.3,0,84.6,0,126.8c0,0.5-0.1,0.6-0.6,0.6c-42.3,0-84.6,0-126.8,0c-0.5,0-0.6-0.1-0.6-0.6
		C0.1,106.4,0.1,85.2,0.1,64.1z M5.5,122.6c0.2,0.2,0.5,0.1,0.8,0.1c3.3,0,6.7,0,10,0c35.1,0,70.2,0,105.4,0c0.4,0,0.7,0.1,1.1-0.1
		c0.2-0.2,0.1-0.5,0.1-0.7c0-38.5,0-77,0-115.5c0-0.3,0-0.5-0.1-0.7c-0.2-0.2-0.5-0.1-0.8-0.1c-3.4,0-6.8,0-10.2,0
		c-35.1,0-70.2,0-105.2,0c-0.4,0-0.7-0.1-1.1,0.1C5.3,5.9,5.4,6.1,5.4,6.4c0,38.5,0,77,0,115.5C5.4,122.1,5.3,122.4,5.5,122.6z"/>
	<path id="XMLID_59_" class="st1" d="M5.5,5.6c0.3-0.2,0.7-0.1,1.1-0.1c35.1,0,70.2,0,105.2,0c3.4,0,6.8,0,10.2,0
		c0.3,0,0.6-0.1,0.8,0.1l0,0c-0.2,0-0.4,0-0.6,0c-38.6,0-77.3,0-115.9,0C5.9,5.6,5.7,5.6,5.5,5.6L5.5,5.6z"/>
	<path id="XMLID_58_" class="st1" d="M122.8,122.6c-0.3,0.2-0.7,0.1-1.1,0.1c-35.1,0-70.2,0-105.4,0c-3.3,0-6.7,0-10,0
		c-0.3,0-0.6,0.1-0.8-0.1l0,0c0.2,0,0.4,0,0.6,0c38.6,0,77.3,0,115.9,0C122.3,122.6,122.5,122.6,122.8,122.6L122.8,122.6z"/>
	<path id="XMLID_57_" class="st1" d="M5.5,122.6c-0.2-0.2-0.1-0.5-0.1-0.7c0-38.5,0-77,0-115.5c0-0.3,0-0.5,0.1-0.7c0,0,0,0,0,0
		c0,0.2,0,0.4,0,0.6c0,38.6,0,77.1,0,115.7C5.5,122.2,5.5,122.4,5.5,122.6L5.5,122.6z"/>
	<path id="XMLID_56_" class="st1" d="M122.8,5.6c0.2,0.2,0.1,0.5,0.1,0.7c0,38.5,0,77,0,115.5c0,0.3,0,0.5-0.1,0.7c0,0,0,0,0,0
		c0-0.2,0-0.4,0-0.6c0-38.6,0-77.1,0-115.7C122.8,6.1,122.7,5.9,122.8,5.6L122.8,5.6z"/>
	<path id="XMLID_51_" class="st2" d="M122.7,5.6c0,0.2,0,0.4,0,0.6c0,38.6,0,77.1,0,115.7c0,0.2,0,0.4,0,0.6c-0.2,0-0.4,0-0.6,0
		c-38.6,0-77.3,0-115.9,0c-0.2,0-0.4,0-0.6,0c0-0.2,0-0.4,0-0.6c0-38.6,0-77.1,0-115.7c0-0.2,0-0.4,0-0.6c0.2,0,0.4,0,0.6,0
		c38.6,0,77.3,0,115.9,0C122.3,5.6,122.5,5.6,122.7,5.6z M71.1,89.5c1.4,0,2.7,0,4.1,0c0.9,0,1-0.1,0.8-1c-0.9-3.2-1.8-6.3-2.7-9.5
		c-1.5-5.1-2.9-10.2-4.4-15.3c-1.4-4.7-2.7-9.4-4.1-14.2c-1.9-6.5-3.7-13-5.6-19.5c-0.2-0.5-0.4-0.8-1-0.8c-3.5,0-7,0-10.6,0
		c-0.6,0-0.8,0.2-0.8,0.8c-0.1,1.5-0.1,3-0.5,4.4c-1.4,4.9-2.8,9.9-4.1,14.8c-1.4,5-2.8,10.1-4.2,15.1c-1.5,5.2-2.9,10.5-4.4,15.7
		c-0.8,2.8-1.6,5.5-2.3,8.3c-0.2,0.9-0.1,1,0.8,1c2.4,0,4.8,0,7.2,0c1,0,1,0,1.2-0.9c1.3-5.1,2.6-10.3,3.9-15.4
		c0.1-0.5,0.3-0.6,0.8-0.6c5.3,0,10.5,0,15.8,0c0.5,0,0.6,0.2,0.8,0.6c1.4,5.1,2.8,10.3,4.1,15.4c0.2,0.7,0.5,0.9,1.2,0.9
		C68.4,89.5,69.8,89.5,71.1,89.5z M84.1,67.3c0,7,0,14.1,0,21.1c0,1.1,0,1.1,1.1,1.1c2.5,0,5,0,7.5,0c0.9,0,1-0.1,1-1
		c0-14.1,0-28.3,0-42.4c0-0.9-0.1-1-1-1c-2.5,0-4.9,0-7.4,0c-1.5,0-1.3,0-1.3,1.3C84.1,53.4,84.1,60.3,84.1,67.3z M94.3,32.7
		c0.1-1.8-1.1-3.6-3.2-4.5c-2.7-1.2-5.6-0.1-7,2.4c-0.6,1.2-0.7,2.4-0.6,3.7c0.3,3.8,4.5,5.7,7.8,4.1C93.3,37.4,94.2,35.7,94.3,32.7
		z"/>
	<path id="XMLID_48_" class="st0" d="M71.1,89.5c-1.3,0-2.7,0-4,0c-0.7,0-1-0.2-1.2-0.9c-1.4-5.1-2.8-10.3-4.1-15.4
		c-0.1-0.4-0.3-0.6-0.8-0.6c-5.3,0-10.5,0-15.8,0c-0.5,0-0.7,0.1-0.8,0.6c-1.3,5.1-2.6,10.3-3.9,15.4c-0.2,0.9-0.3,0.9-1.2,0.9
		c-2.4,0-4.8,0-7.2,0c-0.9,0-1-0.1-0.8-1c0.8-2.8,1.6-5.5,2.3-8.3c1.5-5.2,2.9-10.5,4.4-15.7c1.4-5,2.8-10.1,4.2-15.1
		c1.4-4.9,2.8-9.9,4.1-14.8c0.4-1.4,0.5-2.9,0.5-4.4c0-0.6,0.2-0.8,0.8-0.8c3.5,0,7,0,10.6,0c0.6,0,0.8,0.2,1,0.8
		c1.8,6.5,3.7,13,5.6,19.5c1.4,4.7,2.7,9.4,4.1,14.2c1.5,5.1,2.9,10.2,4.4,15.3c0.9,3.2,1.8,6.3,2.7,9.5c0.3,0.9,0.2,1-0.8,1
		C73.8,89.5,72.5,89.5,71.1,89.5z M53,38.1c-0.8,3.7-1.6,7.4-2.6,11.1c-1.2,4.6-2.4,9.2-3.6,13.9c-0.1,0.5-0.1,0.7,0.5,0.7
		c3.8,0,7.6,0,11.3,0c0.5,0,0.7-0.1,0.5-0.6c-0.9-3.3-1.7-6.6-2.5-9.8c-0.8-3.3-1.7-6.7-2.5-10C53.8,41.5,53.4,39.8,53,38.1z"/>
	<path id="XMLID_47_" class="st0" d="M84.1,67.3c0-7,0-13.9,0-20.9c0-1.2-0.2-1.3,1.3-1.3c2.5,0,4.9,0,7.4,0c0.9,0,1,0.1,1,1
		c0,14.1,0,28.3,0,42.4c0,0.9-0.1,1-1,1c-2.5,0-5,0-7.5,0c-1.1,0-1.1,0-1.1-1.1C84.1,81.3,84.1,74.3,84.1,67.3z"/>
	<path id="XMLID_46_" class="st0" d="M94.3,32.7c0,3-0.9,4.7-3.1,5.7c-3.2,1.6-7.4-0.3-7.8-4.1c-0.1-1.3-0.1-2.6,0.6-3.7
		c1.4-2.6,4.3-3.6,7-2.4C93.2,29.1,94.3,30.9,94.3,32.7z"/>
	<path id="XMLID_45_" class="st2" d="M53,38.1c0.4,1.7,0.8,3.4,1.2,5.1c0.8,3.3,1.7,6.7,2.5,10c0.8,3.3,1.7,6.6,2.5,9.8
		c0.1,0.6,0,0.6-0.5,0.6c-3.8,0-7.6,0-11.3,0c-0.6,0-0.6-0.2-0.5-0.7c1.2-4.6,2.4-9.2,3.6-13.9C51.4,45.5,52.2,41.8,53,38.1z"/>
</g>
</svg>
