<?xml version="1.0" encoding="utf-8"?>
<!-- Generator: Adobe Illustrator 19.0.0, SVG Export Plug-In . SVG Version: 6.00 Build 0)  -->
<svg version="1.1" id="Camada_1" xmlns="http://www.w3.org/2000/svg" xmlns:xlink="http://www.w3.org/1999/xlink" x="0px" y="0px"
	 viewBox="-618 321 128 128" style="enable-background:new -618 321 128 128;" xml:space="preserve">
<style type="text/css">
	.st0{fill:#231F20;}
	.st1{fill:#0868AC;}
</style>
<g>
	<path class="st0" d="M-555.1,446.6c-8.7-0.8-14.9-2.6-22.6-6.2c-20.2-9.9-34.8-28.1-39.3-49.2c-1.1-5.1-1.4-15-0.6-20
		c0.7-4.6,2.6-10.3,4.7-14.3c0.9-1.8,3.5-5.5,6.1-8.7c2.5-3.1,4.6-5.9,5-6.2c0.9-1.4,0.8-0.2-0.4,2.4c-6,13.2-5.3,30.8,1.9,46
		c9.2,19.2,29,35,49.5,39.3c8.5,1.8,19.9,1.9,27.5,0.5c11.6-2.4,21.9-8.1,28.4-16c0.7-0.9,1.4-1.5,1.5-1.4c0.4,0.4-2.5,5.5-4.8,9.1
		c-9.6,14.3-24.5,23.1-42.1,25C-543.4,446.8-552.1,446.9-555.1,446.6z"/>
	<path class="st0" d="M-538.2,406.6c-5.2-0.6-10.3-2.1-15.8-5.1c-6.7-3.5-14-9.9-18.2-15.7c-2.7-3.9-6.1-10.6-7.3-14.7
		c-2.9-10.1-2-20.9,2.6-29.2c1.4-2.6,8-12.1,8.7-12.5c0.2-0.1,0.4-0.1,0.2,0.1c-2.1,4.5-2.8,6.1-3.4,8.4c-4,14.6,0.9,30.1,13.3,42.4
		c6.2,6.2,12.7,10.3,20.8,13c5.9,2,8.6,2.4,15.8,2.4c5.9,0,7-0.1,10-0.9c7.9-2.1,15.6-7,19.7-12.4c0.7-0.9,1.5-1.8,1.7-1.8
		c0.5,0-1.1,3.5-2.6,6.2c-4.4,7.5-11.4,13.7-19.1,17C-519.2,406.5-528.6,407.5-538.2,406.6z"/>
	<path class="st0" d="M-522.5,371.7c-11.8-1.7-23.2-11.8-26.2-23.3c-1.4-5.5-0.7-12.6,1.7-17.3c1.1-2.1,5.1-7.8,5.3-7.5
		c0.1,0.1-0.2,0.8-0.6,1.8c-1.9,4.4-2.4,10-1.1,15.1c2.1,8.5,9,16.9,16.9,20.8c5.2,2.6,9.9,3.7,15.7,3.7c6.5,0,11.3-2,15.2-6.1
		c2.4-2.5,2.5-2.2,0.6,0.9c-3.5,5.9-8.4,9.8-14.5,11.4C-512.7,371.9-518.9,372.3-522.5,371.7z"/>
	<path class="st1" d="M-555.1,446.6c-8.7-0.8-14.9-2.6-22.6-6.2c-20.2-9.9-34.8-28.1-39.3-49.2c-1.1-5.1-1.4-15-0.6-20
		c0.7-4.6,2.6-10.3,4.7-14.3c0.9-1.8,3.5-5.5,6.1-8.7c2.5-3.1,4.6-5.9,5-6.2c0.9-1.4,0.8-0.2-0.4,2.4c-6,13.2-5.3,30.8,1.9,46
		c9.2,19.2,29,35,49.5,39.3c8.5,1.8,19.9,1.9,27.5,0.5c11.6-2.4,21.9-8.1,28.4-16c0.7-0.9,1.4-1.5,1.5-1.4c0.4,0.4-2.5,5.5-4.8,9.1
		c-9.6,14.3-24.5,23.1-42.1,25C-543.4,446.8-552.1,446.9-555.1,446.6z"/>
	<path class="st1" d="M-538.2,406.6c-5.2-0.6-10.3-2.1-15.8-5.1c-6.7-3.5-14-9.9-18.2-15.7c-2.7-3.9-6.1-10.6-7.3-14.7
		c-2.9-10.1-2-20.9,2.6-29.2c1.4-2.6,8-12.1,8.7-12.5c0.2-0.1,0.4-0.1,0.2,0.1c-2.1,4.5-2.8,6.1-3.4,8.4c-4,14.6,0.9,30.1,13.3,42.4
		c6.2,6.2,12.7,10.3,20.8,13c5.9,2,8.6,2.4,15.8,2.4c5.9,0,7-0.1,10-0.9c7.9-2.1,15.6-7,19.7-12.4c0.7-0.9,1.5-1.8,1.7-1.8
		c0.5,0-1.1,3.5-2.6,6.2c-4.4,7.5-11.4,13.7-19.1,17C-519.2,406.5-528.6,407.5-538.2,406.6z"/>
	<path class="st1" d="M-522.5,371.7c-11.8-1.7-23.2-11.8-26.2-23.3c-1.4-5.5-0.7-12.6,1.7-17.3c1.1-2.1,5.1-7.8,5.3-7.5
		c0.1,0.1-0.2,0.8-0.6,1.8c-1.9,4.4-2.4,10-1.1,15.1c2.1,8.5,9,16.9,16.9,20.8c5.2,2.6,9.9,3.7,15.7,3.7c6.5,0,11.3-2,15.2-6.1
		c2.4-2.5,2.5-2.2,0.6,0.9c-3.5,5.9-8.4,9.8-14.5,11.4C-512.7,371.9-518.9,372.3-522.5,371.7z"/>
</g>
</svg>
