<?xml version="1.0" encoding="utf-8"?>
<!-- Generator: Adobe Illustrator 19.0.0, SVG Export Plug-In . SVG Version: 6.00 Build 0)  -->
<svg version="1.1" id="Camada_1" xmlns="http://www.w3.org/2000/svg" xmlns:xlink="http://www.w3.org/1999/xlink" x="0px" y="0px"
	 viewBox="-219 483 128 128" style="enable-background:new -219 483 128 128;" xml:space="preserve">
<style type="text/css">
	.st0{fill:#383932;}
	.st1{fill:#F0DB4F;}
</style>
<g id="layer101">
	<path class="st0" d="M-219,547v-64h64h64v64v64h-64h-64V547z"/>
</g>
<g id="layer102">
	<path class="st1" d="M-219,547v-64h64h64v64v64h-64h-64V547z M-161.6,600.2c4.7-1.2,8.2-4,10.2-7.8c1.8-3.6,2-5.7,2-28.6v-21.9h-6
		h-5.9l-0.1,22.1c-0.1,20.4-0.2,22.2-0.9,23.5c-1.4,2.6-5.8,3.5-8.8,1.7c-0.9-0.5-2.2-1.8-3-3c-0.8-1.2-1.5-2.1-1.6-2.1
		c-0.2,0-8.9,5.2-9.3,5.6c-1.1,0.9,4.3,7.1,7.8,8.9C-173.1,600.7-166.1,601.4-161.6,600.2z M-115.2,600.3c5.8-1.2,10.5-4.7,12.6-9.3
		c1-2.2,1.2-2.9,1.2-7.1s-0.1-4.9-1.1-7c-2.2-4.7-5.8-7.7-14.1-11.4c-2.8-1.2-5.6-2.6-6.4-2.9c-3.5-1.7-5.2-4.8-4.1-7.5
		c1-2.3,2.2-3,4.9-3.2c3-0.2,5.4,0.8,6.9,3.1c0.6,0.9,1.2,1.5,1.4,1.5c0.2,0,2.3-1.3,4.8-2.9c5.1-3.2,5.1-2.9,1.2-7
		c-2.6-2.8-5.5-4.3-9.2-5c-9-1.7-16.7,1.5-20.4,8.1c-1.4,2.6-1.5,2.8-1.5,7.6c0,4.5,0.1,5.1,1.2,7.3c2.3,4.6,5.9,7.4,14.3,11.1
		c6.4,2.8,8.8,4.3,9.7,6.1c2.2,4.6-1.2,8.3-7.6,8.4c-4.4,0-8.3-2.1-10.8-5.8c-0.3-0.5-0.9-1-1.2-1c-0.3,0-2.5,1.2-5,2.7l-4.6,2.7
		l1.2,1.9c3.1,4.9,9.3,8.9,15.4,9.9C-124.2,600.8-117.4,600.7-115.2,600.3z"/>
</g>
</svg>
