<?xml version="1.0" encoding="utf-8"?>
<!-- Generator: Adobe Illustrator 19.0.0, SVG Export Plug-In . SVG Version: 6.00 Build 0)  -->
<svg version="1.1" id="Camada_1" xmlns="http://www.w3.org/2000/svg" xmlns:xlink="http://www.w3.org/1999/xlink" x="0px" y="0px"
	 viewBox="0 0 128 128" style="enable-background:new 0 0 128 128;" xml:space="preserve">
<style type="text/css">
	.st0{fill:#EECBA2;}
	.st1{fill:#CBAB8C;}
	.st2{fill:#442823;}
	.st3{fill:#56332B;}
	.st4{fill:#CCAC8D;}
	.st5{fill:#CDAD8E;}
	.st6{fill:#CDAD8D;}
	.st7{fill:#D6B694;}
	.st8{fill:#D8B795;}
	.st9{fill:#DDBB97;}
	.st10{fill:#D9B895;}
	.st11{fill:#DFBD99;}
	.st12{fill:#DBB996;}
	.st13{fill:#2F1C18;}
	.st14{fill:#321E1A;}
	.st15{fill:#FAFAFA;}
	.st16{fill:#FCFCFC;}
	.st17{fill:#020101;}
	.st18{fill:#3F2521;}
	.st19{fill:#361914;}
	.st20{fill:#351914;}
	.st21{fill:#7D4940;}
	.st22{fill:#462924;}
	.st23{fill:#452823;}
	.st24{fill:#180E0C;}
	.st25{fill:#0F0907;}
	.st26{fill:#120B09;}
	.st27{fill:#341F1A;}
	.st28{fill:#100908;}
	.st29{fill:#160D0B;}
	.st30{fill:#7C483F;}
	.st31{fill:#73433B;}
</style>
<g>
	<path class="st0" d="M39,27.3c5.2-1.3,10.4-2,15.7-2.4c5.6-0.4,11.1-0.4,16.7-0.2c6,0.2,12,0.8,17.8,2.3c1.7,1,3.1,2.4,4.1,4.1
		c0.3,0.7,0.9,1.2,1.3,1.7c2.5,3.7,5.3,7.1,7.1,11.2c0.6,1.3,1.1,2.7,1.3,4.2c0,0.4,0,0.8-0.4,1c-0.3,0.2-0.7,0-0.8-0.2
		c-1.7-2.6-5-4-5.7-7.7c0.1,2.8-0.2,3.1-2.6,2.6c-2.3-0.5-4.7-0.7-7-1.1c-0.6-0.1-1.2-0.1-1.7-0.1c-3.9,0.2-4.3,0.8-3.4,4.6
		c0.4,1.7,0.9,3.5,0.9,5.3c0,1.5-0.5,2.8-2.2,3.5c1.1,0.9,2.3,1.7,3.4,2.6c2.4,1.9,4.7,4,6.9,6.2c2.6,3.5,3.6,3.7,7.5,1.5
		c2.4-1.4,3.9-3.4,4.8-6c0.2-0.6,0.2-1.5,1-1.5c0.9,0,0.9,0.9,1,1.6c0.3,3.5,0.8,6.9,1.1,10.3c0.4,3.8-0.3,7.3-3.6,9.9
		c-1.9,1.5-3.7,3-5.8,4.2c-2.3,1.2-3.5,0.6-3.5-2c0-9-4.6-15.2-11.7-20c-2.9-1.9-6-3.5-8.5-6c-0.7-0.7-1.6-1.3-2.5-1.8
		c-3.6-2.4-7.3-2.6-11.1-0.3c-3.4,2-6,5.1-9.6,6.8C44.5,64.1,41,68.3,38,72.9c-1.8,2.7-2.1,5.8-2.3,8.8c-0.3,4.6-0.9,4.9-4.8,2.6
		c-2.6-1.5-4.8-3.5-6.7-5.8c-1.5-1.9-1.7-4.3-1.5-6.6c0.3-3.6,0.8-7.3,1.2-10.9c0.1-0.9,0.2-1.8,0.9-2.4c0.8,0.3,0.8,1,1,1.6
		c1.1,3.6,3.6,6,7.1,7.3c2.1,0.8,2.7,0.7,4.1-1.1c0.4-0.4,0.7-0.9,1.1-1.4c2.3-2.3,4.7-4.5,7.3-6.5c0.9-0.8,2-1.4,2.9-2.3
		c-2-1-2.3-2.6-2-4.5c0.3-2,0.7-3.9,1.4-5.8c0.5-1.5-0.1-2.3-1.6-2.7c-2.8-0.8-5.5,0-8.2,0.2c-1.4,0.1-2.8,0.5-4.2,0.8
		c-1.8,0.4-2,0.3-1.9-1.6c0-0.4,0.2-0.8,0.2-1.1c-0.9,2.8-2.8,5.1-5.1,7c-0.3,0.2-0.7,0.5-1,0.2c-0.4-0.3-0.3-0.7-0.2-1.1
		c0.4-1.9,1-3.7,2-5.4c2.3-3.8,4.8-7.4,7.4-11c0.5-0.7,1.1-1.4,1.5-2.2C37.2,28.3,37.7,27.2,39,27.3z"/>
	<path class="st1" d="M83.5,59.3c-1.5-1.1-3.2-2.1-4.6-3.6c2.3,0,3-0.7,3-2.9c0-2.3-0.8-4.5-1.3-6.8c-0.5-2.4-0.2-2.8,2-3.3
		c3.8-0.8,7.5,0.1,11.2,0.9c1.8,0.4,2.2-0.1,2-1.7c0-0.3,0-0.7,0.2-1.2c1,3.7,4.6,5.4,6.7,8.8c-0.2-3.6-1.6-6.1-3.2-8.6
		c-1.7-2.8-3.6-5.5-5.3-8.2c0.2-0.1,0.4-0.2,0.6-0.1c3.2,2.6,5.3,6.1,7.2,9.6c3.1,5.4,4.1,11.4,4.7,17.5c0,0.7,0,1.4,0.2,2.1
		c0.1,0.6,0.2,1.2,0.2,1.8c0,0.9-0.1,1.8,0.2,2.7c0.1,0.6,0.2,1.2,0.2,1.8c0,0.7,0,1.4,0.2,2.1c0.1,0.7,0.1,1.3-0.4,1.8
		c-0.5,3.6-1.8,7-4.3,9.7c-1.7,1.8-2.5,4-3.1,6.5c-1.3,5.6-5,9.1-10.5,10.7c0.9-2.8,2.1-5.6,2.4-8.5c0.3-0.9,0.2-1.9,0.2-2.8
		c0-1.9,0-3.7,0-5.6c0.3-4.1-1-7.7-3.5-10.9c-3.8-4.8-8.2-8.7-14-10.8c-0.9-0.3-1.7-0.8-2.3-1.7c-2.9-4.3-11.2-4.3-14.6-0.3
		c-0.8,1-1.8,1.6-3,2c-6.4,2.4-11.2,6.7-15,12.2c-1.3,1.9-2.1,4.1-2.3,6.5c-0.3,3.1-0.4,6.1,0,9.2c0.2,2.6,0.6,5.1,1.4,7.6
		c0.4,1.3,1.8,2.1,1.7,3.5c-5.9-1.3-11.3-5.8-12-12c-0.2-1.5-0.8-2.8-1.8-4c-2.7-3.2-4.9-6.6-5.3-10.9c0-0.5-0.1-1.1-0.6-1.3
		c-0.5-0.5-0.5-1.2-0.5-1.8c0.7-6.4,0.9-12.9,2.5-19.3c2.1-8.1,6.7-14.6,12.7-20.3c0.4-0.4,0.8-0.8,1.5-0.7
		c-0.8,2.1-2.5,3.7-3.7,5.5c-2.4,3.7-5.2,7-6.7,11.2c-0.3,0.9-0.5,1.8-0.8,3c3-2.3,4.8-5.1,6.5-8.1c0,1.1,0,2.1,0,3.3
		c2.9-0.8,5.9-1.3,9-1.6c1.2-0.1,2.4-0.2,3.6-0.1c3.5,0.4,4,1.2,3,4.6c-0.5,1.7-0.9,3.5-1.2,5.2c-0.4,2.2,0.7,3.5,2.9,3.4
		C48.5,57.1,47,58,45.6,59c-0.6-0.5-0.3-1.2-0.2-1.8c0.2-3.4-1.6-6.8-4.6-8.3c-2.9-1.4-7-0.9-9.4,1.3c-2.5,2.3-3.5,6.2-2,9.4
		c1.3,2.9,3.6,4.8,6.9,5.1c0.8,0.1,1.7-0.2,2.3,0.6c-3,4.1-2.6,4.4-7.7,1.9c-3.4-1.6-5-4.6-6-8.4c-0.8,3.7-0.9,7.2-1.3,10.7
		c-0.2,1.6-0.5,3.1-0.3,4.8c0.6,5.4,4.8,7.7,8.7,10.2c2.7,1.7,3,1.5,3.1-1.8c0.3-9.7,5.6-16.1,13.6-20.8c2.8-1.7,5.4-3.6,8-5.6
		c6.2-4.7,10.9-4.5,16.6,0.8c2.5,2.3,5.3,4,8.2,5.7c5,3,8.2,7.4,10.7,12.3c1.2,2.4,1.3,5.3,1.3,8.1c0,2.3,0.6,2.7,2.6,1.7
		c3.1-1.7,5.9-3.8,8-6.5c1.6-2,1.6-4.7,1.3-7.2c-0.4-3.7-1-7.3-1.1-11c0-0.2-0.2-0.5-0.4-1c-0.7,1.7-1.1,3.2-1.9,4.5
		c-1.9,2.9-4.7,4.3-7.9,5.1c-1.1,0.3-1.8-0.3-2.4-1.2c-0.5-0.8-1.1-1.6-1.7-2.3c0.3-0.3,0.7-0.3,1-0.3c0.7,0.2,1.4,0.2,2.1,0
		c3.9-0.7,6.2-3.1,7.3-6.8c0.3-1.2,0.3-2.4,0-3.5c-2.1-5.1-5.4-7.1-10.3-6.2c-3.8,0.7-5.7,3.2-6.4,6.8c-0.3,0.8-0.2,1.7,0,2.5
		C83.9,58.2,83.9,58.8,83.5,59.3z"/>
	<path class="st2" d="M40.6,99.5c-3-3.1-3.4-7.1-3.5-11.1c-0.2-1.7-0.2-3.4,0-5.1c0.9-0.1,1.2,0.5,1.7,1c3,3.2,6.7,5.4,10.7,7
		c1.9,0.7,2,0.6,2.6-1.4c0.3-0.9,0.1-2,1.3-2.4c0.3,0.1,0.5,0.3,0.7,0.6c0.2,0.6,0.2,1.1,0.2,1.7c-0.1,2.2,0,2.2,2.1,2.9
		c6.1,2,12,1.6,17.9-0.8c1.1-0.4,1.5-1,1.4-2.2c-0.1-0.5-0.2-1-0.1-1.5c0.1-0.4,0.2-0.8,0.5-1c1.4,0,1.1,1.2,1.3,2
		c0.8,2.5,0.9,2.7,3.3,1.6c4.3-1.9,8.1-4.3,11-8.1c0.3-0.4,0.5-0.9,1.2-0.8c0,2,0,4.1,0.1,6.1c-0.4,0.9,0,1.8-0.3,2.7
		c-0.5,3-1,5.9-2.9,8.4c-1.5,1.1-3.2,1.6-5,1.7c-1.7,0.1-3.4,0.4-5,1.2c-2.7,1.3-5.6,1.5-8.5,1.5c-4.6,0-9.1,0-13.7,0
		c-1.3,0-2.8,0-4-0.4C49.2,101.4,44.7,101.1,40.6,99.5z"/>
	<path class="st3" d="M106.2,59.7c-0.7-8.7-3.1-16.8-8.8-23.6c-0.9-1.1-1.9-2.2-2.8-3.4c-0.6-0.4-1.1-0.9-1.5-1.5
		c-1-1.7-2.7-2.6-3.8-4.2c7.4-0.3,14.5,1,20.6,5.5c6.6,4.9,12.1,10.9,17.4,17.2c1.1,1.4,1.1,2.3-0.3,3.5c-3,2.6-5.8,5.4-8.8,8.1
		c-0.7-0.4-0.9-1.1-1.2-1.7c-3.5-8.3-8.6-15.6-14.5-22.4c-0.4-0.5-1.1-1-1.1-1.4c0.9,1.1,1.8,2.6,2.7,4.1c4.5,7.9,7.4,16.4,8.7,25.4
		c0.3,2.1,0.7,4.3,0.4,6.5c0,0.1,0,0.3-0.1,0.4c-2.3,3.7-3.7,3.7-5.6,0c0-0.7-0.1-1.3-0.1-2c-0.3-0.6,0.1-1.3-0.3-1.9
		c0-0.6-0.1-1.3-0.1-1.9c-0.3-0.9,0.2-1.8-0.3-2.7c0-0.6-0.1-1.3-0.1-1.9C106.2,61,106.6,60.3,106.2,59.7z"/>
	<path class="st3" d="M37,29.1C28.3,37,22.8,46.4,22,58.3c-0.3,4.3-0.8,8.7-1.2,13c-0.1,0.1-0.1,0.2-0.2,0.3
		c-0.4,1.2-0.2,2.9-1.9,3.2c-1.7,0.3-2.4-1.2-3.2-2.3c-0.2-0.2-0.3-0.5-0.4-0.8C15,66.2,16,60.9,17.5,55.6
		c1.8-6.1,4.3-11.9,7.5-17.3c0.5-0.8,1-1.6,1.7-2.3c-6.2,7-11.6,14.4-15.3,23c-0.3,0.7-0.3,2-1.6,2c-3-2.7-5.9-5.5-8.9-8.2
		c-0.9-0.8-1.1-1.5-0.3-2.6C6.3,43.1,12.4,36.4,20,31.3c5.2-3.4,11.3-4.3,17.5-4.6c0.5,0,1.2-0.1,1.5,0.5
		C38.3,27.9,37.7,28.5,37,29.1z"/>
	<path class="st2" d="M113.1,71.7c-0.8-2.5-0.6-5.1-1.1-7.7c-1.7-10.3-5.4-19.7-11.2-28.4c-0.1-0.2-0.2-0.4-0.2-0.7
		c7.6,7.6,13.6,16.3,17.5,26.3C116.5,64.8,115.1,68.4,113.1,71.7z"/>
	<path class="st2" d="M9.9,61c1-1.2,1.4-2.7,2-4.1c3.1-6.3,6.8-12.2,11.4-17.5c1.3-1.6,2.7-3.2,4.4-4.4c-1.5,2.6-3.1,5.1-4.5,7.8
		c-3.7,7.1-6,14.7-7.3,22.6c-0.3,2.1-0.2,4.3-0.8,6.4C12.9,68.3,11.8,64.4,9.9,61z"/>
	<path d="M91.1,65.2c-0.4,0-0.8-0.1-1.2-0.1c-2.2-1.9-4.4-3.9-6.5-5.8c0-0.6-0.1-1.3-0.1-1.9c-0.1-0.8-0.2-1.5,0-2.3
		c0.9-4.8,3.4-7.2,8.3-7.5c3.4-0.2,6.3,1.2,8.1,4.4c0.4,0.8,0.8,1.6,1.1,2.4c0.2,1.3,0.1,2.5,0,3.8c-1.2,3.9-3.6,6.5-7.8,7.1
		C92.4,65.4,91.8,65.4,91.1,65.2z"/>
	<path d="M38.6,65.2c-5.5,0-8.8-2.1-10.1-6.3c-1-3.5,0.1-7.4,2.9-9.5c3-2.3,7-2.5,10.1-0.6c3.2,2,4.8,5.5,4.1,9.2
		c-0.1,0.3-0.1,0.6-0.1,0.9C43.3,61,40.9,63.1,38.6,65.2z"/>
	<path class="st4" d="M81.5,39.3c-3.5,0.3-5.6,2.1-6.2,5.5c-0.1,0.5-0.3,1-0.3,1.5c-0.2,1.3-0.7,1.3-1.6,0.6
		c-4-3.1-8.6-3.4-13.3-2.5c-2.1,0.4-3.6,1.7-5.4,2.9c-0.4-0.8-0.1-1.5,0-2.3c0.7-3-0.3-4.5-3.2-5.2c-1.1-0.3-2.3-0.4-3.4-0.4
		c-1.1,0-2.2,0-3.2-0.1c2.4-0.3,4.9-0.7,7.4-0.2c2.1,0.4,3.8,1.9,4.2,4.2c0.2,1,0.3,1.1,1.3,0.8c4.9-1.6,9.8-2,14.5,0.5
		c0.6,0.3,1,0.7,1.4-0.4c1.7-4.6,2.7-5.2,8-5.2c0.1,0.1,0.2,0.2,0.1,0.3C81.6,39.2,81.5,39.3,81.5,39.3z"/>
	<path class="st4" d="M52.9,52c3.3-2.4,6.8-4.4,11-4.6c5.2-0.3,9.4,2,13.3,5c0.1,0.1,0.2,0.2,0.1,0.3c0,0.1-0.1,0.1-0.1,0.1
		c-1.8-0.8-3.6-1.7-5.5-2.4c-6.5-2.2-12.6-1.3-18.5,2C52.9,52.6,52.8,52.4,52.9,52z"/>
	<path class="st5" d="M94.2,72.1c4.3,0.3,7.6-1.3,9.7-5.4c0.1,3.1-2.9,6-5.9,6.2c-1.3,0.1-2.5-0.2-3.8-0.4c-0.1-0.1-0.1-0.2-0.1-0.3
		C94.2,72.1,94.2,72.1,94.2,72.1z"/>
	<path class="st5" d="M34.7,72.5c-0.9,0.1-1.9,0.4-2.8,0.4c-3.5,0.1-5.6-1.6-6.7-5.5c2.2,3.4,5.1,4.8,8.8,4.7
		C34.4,71.9,34.8,71.8,34.7,72.5z"/>
	<path class="st6" d="M69.1,38.9c-2.3-1.4-4.8-1.4-7.3-0.8c-0.4,0.1-0.5,0-0.4-0.4c2.9-1.9,5.6-1.5,8.1,0.8
		C69.6,38.9,69.5,39,69.1,38.9z"/>
	<path class="st7" d="M61.4,37.7c0.1,0.1,0.3,0.3,0.4,0.4c-0.8,0.5-1.5,1-2.3,1.5C59.8,38.6,60.7,38.3,61.4,37.7z"/>
	<path class="st8" d="M69.1,38.9c0.1-0.1,0.3-0.3,0.4-0.4c0.7,0.4,1.3,1,1.5,1.9C70.4,39.9,69.8,39.4,69.1,38.9z"/>
	<path class="st9" d="M94.2,72.1c0,0.1,0,0.3,0,0.4c-0.7-0.2-1.5-0.3-2.4-1.1C92.9,71.7,93.6,71.5,94.2,72.1z"/>
	<path class="st8" d="M81.5,39.3c0-0.1,0-0.2,0-0.4c0.9,0,1.8,0,2.6,0c0,0.1,0,0.2,0,0.4C83.2,39.3,82.4,39.3,81.5,39.3z"/>
	<path class="st10" d="M52.9,52c0.1,0.1,0.3,0.3,0.4,0.4c-0.5,0.4-1,0.8-1.5,1.1C51.9,52.7,52.3,52.3,52.9,52z"/>
	<path class="st11" d="M34.7,72.5c-0.2-0.3-0.5-0.4-0.8-0.4c0.6-0.6,1.3-0.4,2-0.3C35.7,72.4,35.2,72.4,34.7,72.5z"/>
	<path class="st1" d="M93.1,31.2c0.7,0.3,1.2,0.8,1.5,1.5c-0.1,0-0.2,0-0.4,0C93.6,32.4,93.1,31.9,93.1,31.2z"/>
	<path class="st12" d="M77.2,52.8c0-0.1,0-0.3,0-0.4c0.4,0.2,0.8,0.4,1,0.9C77.6,53.5,77.4,53.2,77.2,52.8z"/>
	<path class="st3" d="M53.3,87.5c-0.7,1.2-0.8,2.5-1.1,3.8c-0.3,1-0.7,1.2-1.6,0.9c-5.1-1.7-9.6-4.4-13.5-9c0,2,0,3.6,0,5.2
		c-1.9-10,1.6-17.9,9.6-23.9c1.5-1.1,3-2.2,4.7-3c2.5-1.3,5-2.4,7.3-4.3c4.2-3.7,10.9-2.5,14.5,1.9c0.4,0.5,0.9,0.6,1.5,0.8
		c6.9,2.5,12,7.1,15.9,13.1c1.7,2.7,2.3,5.6,2.2,8.8c-3.3,4.9-8,7.8-13.3,9.9c-1.3,0.5-1.8,0.1-2.2-1.1c-0.3-1.1-0.3-2.4-1-3.4
		c-0.6-0.5-0.5-1.2-0.7-1.8c-0.2-0.8-0.5-1.6-0.8-2.3c-1.4-3.5-3.8-6-7.1-7.6c-0.5-0.2-0.9-0.5-1.2-0.9c-1.1-2-1-4.2-1.5-6.3
		c-0.3-1.2-0.1-2.4-0.3-3.6c-0.1-0.7,0.1-1.2,0.7-1.6c0.7-0.2,1.4-0.2,2-0.4c0.5,0.1,0.9-0.3,1.3-0.3c-0.4-0.1-0.8,0.4-1.2,0.3
		c-0.5,0-1,0.3-1.6,0.2c-0.9-0.5-1.7-0.6-2.6-0.1c-0.4-0.1-0.9-0.1-1.3-0.1c-0.4-0.2-0.8-0.4-1-0.4c0.3,0,0.7,0.3,1.1,0.4
		c0.6,0,1.2,0.2,1.8,0.3c1.2,1.2,0.8,2.6,0.7,4c-0.6,2.4-0.5,5-1.5,7.3c-0.4,0.9-1.3,1.2-2,1.7c-2.9,1.8-5,4.2-6.3,7.4
		c-0.3,0.9-0.6,1.8-0.8,2.7C53.8,86.5,53.8,87.2,53.3,87.5z"/>
	<path class="st1" d="M100.9,58.2c0-1.3,0-2.6,0-3.8C101.4,55.6,101.3,56.9,100.9,58.2z"/>
	<path class="st1" d="M92.4,90.6c0-0.9-0.1-1.8,0.3-2.7C92.6,88.8,93,89.8,92.4,90.6z"/>
	<path class="st1" d="M106.6,63.6c0.5,0.9,0.3,1.8,0.3,2.7C106.3,65.4,106.7,64.5,106.6,63.6z"/>
	<path class="st1" d="M83.3,55.1c0,0.8,0,1.5,0,2.3C82.9,56.6,82.9,55.9,83.3,55.1z"/>
	<path class="st1" d="M106.2,59.7c0.4,0.6,0.3,1.3,0.3,2C106,61.1,106.3,60.3,106.2,59.7z"/>
	<path class="st1" d="M91.1,65.2c0.6,0,1.3,0,1.9,0C92.4,65.7,91.8,65.7,91.1,65.2z"/>
	<path class="st1" d="M107,68.2c0.4,0.6,0.3,1.3,0.3,1.9C106.8,69.6,107,68.9,107,68.2z"/>
	<path class="st3" d="M75.7,87.9c0.1,0.3,0.2,0.6,0.2,0.9c0.5,2.4,0.2,2.9-2,3.6c-3.6,1.3-7.3,2.4-11.2,2c-2.8-0.2-5.5-1.1-8.2-1.8
		c-1-0.3-1.4-1.2-1.1-2.2c0.3-0.9,0.3-1.8,0.3-2.7c-0.4-0.7,0-1.3,0.2-1.9c-0.1-0.9,0.4-1.6,0.7-2.4c0.6-1.6,1.3-3.1,2.8-4.1
		c0.8-0.3,1.5-0.8,2.2-1.2c3.6-2.2,7.2-2.1,10.9-0.1c2.4,0.9,3.4,3,4.4,5c0.3,0.7,0.7,1.4,0.7,2.1C75.9,86.2,76.1,87,75.7,87.9z"/>
	<path class="st13" d="M75.7,87.9c0.1-0.9-0.2-1.8-0.4-2.7c0.1-0.2,0.3-0.2,0.4,0c0.6,0.6,0.3,1.3,0.4,1.9
		C76.1,87.5,76,87.8,75.7,87.9z"/>
	<path class="st14" d="M54,86c-0.1,0.6-0.2,1.3-0.4,1.9c-0.1-0.1-0.3-0.3-0.4-0.4c0.1-0.5-0.2-1.1,0.4-1.5
		C53.8,85.8,53.9,85.8,54,86z"/>
	<path class="st15" d="M89.7,54.8c-1.2-0.1-2-0.7-2.1-2.2c0-1.5,0.8-2.3,2.2-2.4c1.3-0.1,2.5,1,2.5,2.4
		C92.2,53.8,91.2,54.8,89.7,54.8z"/>
	<path class="st16" d="M41.7,52.5c-0.2,1.3-0.9,2.3-2.3,2.3c-1.5,0-2.3-0.8-2.4-2.2c-0.1-1.4,1-2.5,2.4-2.4
		C40.8,50.2,41.6,51.1,41.7,52.5z"/>
	<path class="st17" d="M74.6,83.3c-1-1.8-2-3.5-3.9-4.6c-0.8-0.7-1.8-1.2-2.7-1.8c-2.3-1.6-4.5-1.5-6.7,0.2
		c-0.6,0.5-1.3,0.9-1.9,1.3c-0.7,0.4-1.2,1.1-1.9,1.4c-1.2,1.1-2,2.4-2.7,3.8c-0.3,0.1-0.5,0-0.4-0.4c1.1-3.5,3.4-6,6.5-7.9
		c0.5-0.3,1.1-0.6,1.6-1c1.2-0.7,1.4-1.8,1.3-3.1c-0.2-1.4,0-2.9,0.2-4.3c-0.4-1.3,0.9-2.9-0.7-3.9c-0.2-0.2-0.3-0.4,0-0.7
		c0.8-1,1.5-1.2,2.3,0c0.2,0.2,0.2,0.5,0,0.7C65,63.5,64.8,64,65,64.6c0.4,1.2,0.1,2.4,0.3,3.6c0.3,1.2,0.3,2.5,0.3,3.7
		c-0.1,1.2,0.3,1.9,1.3,2.5c3.8,1.8,6.8,4.3,8.2,8.4C75.1,83.3,74.9,83.3,74.6,83.3z"/>
	<path class="st18" d="M64.1,67.1c0.1,1.8,0.2,3.5,0.4,5.3c0.1,1.5-0.4,2.2-1.9,2.1C63.1,72,63.6,69.5,64.1,67.1z"/>
	<path class="st18" d="M66.8,74.5c-1.7,0.1-2.2-0.7-1.7-2.2c0.4-1.3,0.1-2.7,0.2-4C66,70.3,65.8,72.5,66.8,74.5z"/>
	<path class="st19" d="M66.9,61.2c-0.8-0.2-1.2-0.7-1.2-1.5c0-0.6,0-1.3,0.8-1.3c0.8,0.1,1,0.9,1.1,1.6C67.6,60.5,67.4,61,66.9,61.2
		z"/>
	<path class="st20" d="M61.4,60.1c0-0.9,0.3-1.6,1.1-1.7c0.6-0.1,0.8,0.6,0.7,1.1C63,60.2,63,61.2,62,61.2
		C61.2,61.2,61.5,60.4,61.4,60.1z"/>
	<path class="st21" d="M62.1,56.4c1.4,0,2.9,0,4.5,0C65.1,58,63.6,57.4,62.1,56.4z"/>
	<path class="st22" d="M55.2,68.9c-0.1,0.4-0.3,0.9-0.9,0.7c-0.4-0.1-0.8-0.4-0.8-0.9c0.1-0.4,0.3-0.9,0.9-0.7
		C54.9,68,55.2,68.4,55.2,68.9z"/>
	<path class="st22" d="M73,68.8c0.1-0.5,0.3-0.8,0.8-0.9c0.6,0,0.8,0.4,0.8,0.8c0,0.5-0.4,0.8-0.8,0.9C73.3,69.7,73.1,69.3,73,68.8z
		"/>
	<path class="st23" d="M48.2,69.7c-0.5-0.2-0.7-0.5-0.6-1c0.1-0.4,0.3-0.7,0.8-0.7c0.5,0.1,0.7,0.5,0.6,1
		C48.9,69.4,48.6,69.7,48.2,69.7z"/>
	<path class="st23" d="M80.7,68.9c-0.1,0.4-0.3,0.8-0.7,0.8c-0.5,0-0.8-0.4-0.7-0.9c0-0.4,0.2-0.8,0.7-0.8
		C80.5,68,80.6,68.4,80.7,68.9z"/>
	<path class="st23" d="M50.5,73.4c0,0.5-0.3,0.8-0.8,0.9c-0.4,0-0.6-0.2-0.6-0.6c0-0.4,0.1-0.8,0.6-0.8
		C50.1,72.9,50.4,72.9,50.5,73.4z"/>
	<path class="st23" d="M79.1,73.6c0,0.4-0.1,0.8-0.6,0.8c-0.4,0-0.7-0.3-0.8-0.7c-0.1-0.5,0.2-0.7,0.7-0.7
		C78.8,72.9,79.1,73.1,79.1,73.6z"/>
	<path class="st24" d="M54.4,83.3c0.1,0.1,0.2,0.3,0.4,0.4C54.6,84.4,54,85.1,54,86c-0.1,0-0.2,0-0.4,0C53.6,85,53.8,84.1,54.4,83.3
		z"/>
	<path class="st25" d="M65.6,63.2c0-0.2,0-0.5,0-0.7c0.6,0,1.3,0,1.9,0c0.1,0.1,0.2,0.2,0.1,0.2c0,0.1-0.1,0.1-0.1,0.1
		C66.9,62.9,66.3,63.1,65.6,63.2z"/>
	<path class="st26" d="M74.6,83.3c0.1-0.1,0.2-0.3,0.4-0.4c0.5,0.7,0.7,1.5,0.8,2.4c-0.1,0-0.3,0-0.4,0
		C75.1,84.6,74.8,83.9,74.6,83.3z"/>
	<path class="st27" d="M61.8,62.8c-0.5-0.2-1-0.3-1.8-0.6c0.8-0.2,1.3-0.4,1.8,0.2c0.1,0.1,0.2,0.1,0.1,0.2
		C61.9,62.8,61.8,62.8,61.8,62.8z"/>
	<path class="st28" d="M67.6,62.8c0-0.1,0-0.2,0-0.4c0.4-0.1,0.7-0.5,1.3-0.2C68.5,62.7,68.1,62.8,67.6,62.8z"/>
	<path class="st29" d="M61.8,62.8c0-0.1,0-0.2,0-0.3c0.5,0,1,0,1.6,0c0,0.2,0,0.4,0,0.7C62.8,63,62.3,62.9,61.8,62.8z"/>
	<path class="st30" d="M59.1,78.3c0.4-0.4,0.8-0.8,1.3-1.1c4.1-2.9,7.1-2.4,10.3,1.5c-1.8-0.4-3.3-1.5-5.2-1.6c-2.2-0.1-4,1-6,1.6
		C59.1,78.8,59,78.6,59.1,78.3z"/>
	<path class="st31" d="M59.1,78.3c0.1,0.1,0.3,0.3,0.4,0.4c-0.6,0.5-1.1,1.1-2,1.1C57.9,79.2,58.4,78.6,59.1,78.3z"/>
</g>
</svg>
