<?xml version="1.0" encoding="utf-8"?>
<!-- Generator: Adobe Illustrator 19.0.0, SVG Export Plug-In . SVG Version: 6.00 Build 0)  -->
<svg version="1.1" id="Camada_1" xmlns="http://www.w3.org/2000/svg" xmlns:xlink="http://www.w3.org/1999/xlink" x="0px" y="0px"
	 viewBox="0 0 128 128" style="enable-background:new 0 0 128 128;" xml:space="preserve">
<style type="text/css">
	.st0{fill:#AEDDFE;}
	.st1{fill:#1797F5;}
	.st2{fill:#1967C0;}
	.st3{fill:#7CC6FE;}
</style>
<path class="st0" d="M118.9,21.3c-0.3,0.5-0.6,0.9-0.9,1.4c-5.3,10.3-10.5,20.6-15.7,30.9C95.8,66.3,89.4,79,82.9,91.6
	c-6.2,12-12.3,24-18.5,36c-0.1,0.1-0.1,0.3-0.1,0.4c-0.1,0-0.3,0-0.4,0c-0.1-0.4-0.3-0.9-0.4-1.3c1.2-0.2,0.8-1.2,0.8-1.9
	c0-14.5,0-29,0-43.4c0-0.7-0.1-1.4-0.4-2.1c1.8-1.5,2.2-3.9,3.1-5.9C74.7,55.7,82.4,38,90,20.2c0.6-1.3,1.4-1.5,2.7-1.5
	c8.1,0,16.2,0,24.3,0C119.8,18.8,119.8,18.8,118.9,21.3z"/>
<path class="st1" d="M64.6,61c-1,1.5-1-0.2-1-0.4c-2.2-5-4.3-10.1-6.4-15.1C50.7,30.3,44.3,15.2,37.8,0c8.8,0,17.6,0,26.5,0
	c0,19.7,0,39.4,0,59.2C64.3,59.8,64.2,60.5,64.6,61z"/>
<path class="st2" d="M64.6,61c-0.4-0.6-0.3-1.2-0.3-1.9c0-19.7,0-39.4,0-59.2c8.7,0,17.4,0,26,0C85.1,12.3,80,24.7,74.8,37
	C71.4,45,68,53,64.6,61z"/>
<path class="st3" d="M63.9,79.4c0.3,0.6,0.4,1.3,0.4,2.1c0,14.5,0,29,0,43.4c0,0.7,0.4,1.7-0.8,1.9C55.8,111.8,48.2,96.9,40.6,82
	C30.2,61.7,19.8,41.4,9.4,21.1c-1.2-2.4-1.2-2.4,1.5-2.4c8.2,0,16.5,0,24.7,0c1.4,0,2.1,0.4,2.7,1.7C46.1,38.5,54,56.6,61.8,74.7
	C62.5,76.2,63.2,77.8,63.9,79.4z"/>
</svg>
