<?xml version="1.0" encoding="utf-8"?>
<!-- Generator: Adobe Illustrator 19.0.0, SVG Export Plug-In . SVG Version: 6.00 Build 0)  -->
<svg version="1.1" id="Camada_1" xmlns="http://www.w3.org/2000/svg" xmlns:xlink="http://www.w3.org/1999/xlink" x="0px" y="0px"
	 viewBox="0 0 128 128" style="enable-background:new 0 0 128 128;" xml:space="preserve">
<style type="text/css">
	.st0{fill:#1D78BF;}
	.st1{fill:#8ED4F9;}
</style>
<path id="XMLID_57_" class="st0" d="M31.9,43.7c1.4-0.8,2.8-1.5,4.1-2.3c9.1-5,18.1-10,27.2-14.9c0.5-0.3,0.9-0.3,1.4,0
	C74.8,32,85,37.6,95.2,43.3c0.2,0.1,0.4,0.3,0.7,0.4c-0.8,0.5-1.5,0.9-2.3,1.3C84,50.6,74.3,56.2,64.6,61.8c-0.5,0.3-0.8,0.3-1.3,0
	C53.1,55.9,42.8,50,32.6,44.1C32.4,44,32.2,43.8,31.9,43.7z"/>
<path id="XMLID_56_" class="st0" d="M66.2,99.9c0-0.8,0-1.6,0-2.4c0-10.2,0-20.4,0-30.6c0-0.6,0.2-0.9,0.7-1.2
	C77,59.9,87.1,54.1,97.1,48.3c0.2-0.1,0.4-0.2,0.6-0.3c0.3-0.2,0.5-0.2,0.4,0.2c0,0.2,0,0.3,0,0.5c0,11,0,22.1,0,33.1
	c0,0.5-0.1,0.8-0.6,1.1C87.4,88.4,77.2,94,67,99.6C66.8,99.7,66.6,99.9,66.2,99.9z"/>
<path id="XMLID_55_" class="st0" d="M29.7,65.2c0-5.5,0-11.1,0-16.6c0-0.9,0-0.9,0.8-0.5C40.7,54,50.9,59.9,61.1,65.8
	c0.5,0.3,0.6,0.5,0.6,1.1c0,10.8,0,21.6,0,32.3c0,0.9,0,0.9-0.8,0.4C50.7,94,40.6,88.4,30.4,82.9c-0.5-0.3-0.7-0.6-0.7-1.2
	C29.7,76.2,29.7,70.7,29.7,65.2z"/>
<path id="XMLID_54_" class="st1" d="M121.7,95.5c-3.7-2.1-7.3-4.2-10.9-6.3c-2.5-1.4-4.9-2.8-7.4-4.2c-0.5-0.3-0.7-0.6-0.7-1.2
	c0-12.6,0-25.2,0-37.8c0-0.6,0.2-1,0.7-1.3c4.1-2.3,8.2-4.7,12.3-7.1c1.8-1.1,3.7-2.1,5.5-3.2c0.2-0.1,0.4-0.3,0.5-0.2
	c0.3,0.1,0.1,0.4,0.1,0.6c0,4.8,0,9.5,0,14.3c0,15.1,0,30.2,0,45.4C121.8,94.8,121.9,95.1,121.7,95.5z"/>
<path id="XMLID_53_" class="st1" d="M6.2,95.5c0-20.5,0-40.9,0-61.4c1.1,0.6,2.1,1.2,3.1,1.8c5.1,2.9,10.2,5.9,15.3,8.8
	c0.4,0.2,0.5,0.5,0.5,0.9c0,12.8,0,25.5,0,38.3c0,0.5-0.2,0.7-0.6,0.9c-4.7,2.7-9.5,5.5-14.2,8.2C9,93.9,7.7,94.7,6.2,95.5z"/>
<path id="XMLID_52_" class="st1" d="M66.4,0.1c0.2,0.1,0.4,0.2,0.6,0.3c4.3,2.4,8.6,4.9,12.9,7.3c4.5,2.5,9,5.1,13.4,7.6
	c5.2,2.9,10.4,5.9,15.6,8.8c3.3,1.9,6.6,3.7,9.8,5.5c0.2,0.1,0.6,0.2,0.6,0.4c0,0.3-0.3,0.3-0.5,0.4c-5,2.9-10.1,5.8-15.1,8.7
	c-0.6,0.3-1.2,0.6-1.7,1c-0.9,0.8-1.7,0.6-2.7,0c-4.3-2.4-8.7-4.8-13-7.2c-6.5-3.6-13.1-7.2-19.6-10.8c-0.4-0.2-0.4-0.6-0.4-0.9
	c0-4.9,0-9.8,0-14.8c0-2,0-4,0-6C66.2,0.5,66.1,0.2,66.4,0.1z"/>
<path id="XMLID_51_" class="st1" d="M61.7,0c0,0.4,0,0.7,0,0.9c0,6.8,0,13.6,0,20.3c0,0.6-0.2,1-0.8,1.3C54,26.3,47,30.2,40.1,34
	c-4.1,2.2-8.2,4.5-12.3,6.7c-0.3,0.2-0.6,0.3-1,0c-6-3.5-12-7-18.1-10.4c-0.1,0-0.2-0.1-0.3-0.2C26.2,20.1,43.8,10.1,61.7,0z"/>
<path id="XMLID_50_" class="st1" d="M118,98.8c-1.5,0.8-3,1.7-4.4,2.5c-6.4,3.6-12.7,7.2-19.1,10.8c-5.2,3-10.4,5.9-15.7,8.8
	c-4,2.2-8,4.5-11.9,6.8c-0.5,0.3-0.7,0.3-0.7-0.4c0-7.2,0-14.3,0-21.5c0-0.5,0.2-0.8,0.6-1c7.8-4.3,15.6-8.6,23.4-12.9
	c2.6-1.4,5.2-2.9,7.8-4.3c0.4-0.2,0.7-0.2,1.1,0c6.1,3.5,12.2,7.1,18.3,10.6C117.7,98.4,117.9,98.5,118,98.8z"/>
<path id="XMLID_49_" class="st1" d="M9.7,98.8c1.6-0.9,3-1.8,4.5-2.6c4.7-2.7,9.4-5.4,14.1-8.2c0.7-0.4,1.2-0.4,1.8,0
	c5.7,3.2,11.5,6.3,17.2,9.5c4.3,2.4,8.7,4.8,13,7.1c0.9,0.5,1.3,1,1.3,2.1c-0.1,6.9,0,13.7,0,20.6c0,0.3,0,0.5,0,1
	C44.3,118.3,27.1,108.6,9.7,98.8z"/>
</svg>
